<svg width="33" height="33" viewBox="0 0 33 33" fill="none" xmlns="http://www.w3.org/2000/svg">
<mask id="path-1-outside-1_37_678" maskUnits="userSpaceOnUse" x="6" y="1" width="22" height="30" fill="black">
<rect fill="white" x="6" y="1" width="22" height="30"/>
<path d="M17.4008 10.5086C17.4008 10.0905 17.244 9.88145 16.9304 9.88145C16.64 9.88145 16.4948 10.0557 16.4948 10.4041V12.1985C16.5878 12.2798 16.7271 12.3205 16.913 12.3205C17.0988 12.3205 17.2265 12.2508 17.2962 12.1114C17.3659 11.9721 17.4008 11.7165 17.4008 11.3449V10.5086ZM18.0454 17.5644C17.302 17.5644 16.6691 17.5122 16.1464 17.4076C16.1116 17.5122 16.0941 17.6109 16.0941 17.7038C16.0941 17.9593 16.2742 18.1335 16.6342 18.2265C17.0059 18.3078 17.4763 18.3484 18.0454 18.3484C19.8572 18.3484 21.402 18.0813 22.6795 17.547C23.9339 17.8722 24.9095 18.5807 25.6064 19.6725C26.1755 20.5668 26.4601 21.6179 26.4601 22.8258C26.4601 24.9745 25.5483 26.6469 23.7248 27.8432C21.9014 29.0395 19.5494 29.6377 16.6691 29.6377C13.8003 29.6377 11.5819 29.1266 10.014 28.1046C8.56215 27.1754 7.83624 25.9675 7.83624 24.4808C7.83624 23.9117 7.96981 23.3659 8.23694 22.8432C8.50407 22.3089 8.81186 21.9431 9.16029 21.7456C9.74102 22.2334 10.5947 22.6283 11.7213 22.9303C12.8595 23.2323 14.0268 23.3833 15.223 23.3833C16.4193 23.3833 17.1859 23.3368 17.5227 23.2439C17.8712 23.151 18.0454 22.9884 18.0454 22.7561C18.0454 22.64 18.0105 22.5238 17.9408 22.4077C17.3601 22.5354 16.6342 22.5993 15.7631 22.5993C13.5215 22.5993 11.7619 22.2799 10.4843 21.6411C8.928 20.8746 8.14983 19.7189 8.14983 18.1742C8.14983 17.5702 8.27179 17.0127 8.51569 16.5017C8.75959 15.979 9.11964 15.59 9.59584 15.3344C8.95704 14.9396 8.41116 14.3414 7.95819 13.54C7.51684 12.7386 7.29617 11.7514 7.29617 10.5783C7.29617 8.34834 8.13241 6.58874 9.8049 5.29954C11.4774 4.01033 13.6493 3.36573 16.3206 3.36573C17.6098 3.36573 18.8526 3.5806 20.0489 4.01033V2.79081C20.7341 2.52368 21.64 2.39011 22.7667 2.39011C23.9049 2.39011 24.7701 2.58175 25.3625 2.96503C26.0826 3.42961 26.4426 4.24843 26.4426 5.42149C26.4426 6.0719 26.3729 6.59455 26.2336 6.98944C26.1058 7.38434 25.9142 7.79665 25.6587 8.22639C25.9606 8.99294 26.1116 9.94533 26.1116 11.0835C26.1116 13.1393 25.3799 14.7363 23.9165 15.8745C22.4647 17.0011 20.5076 17.5644 18.0454 17.5644Z"/>
</mask>
<path d="M17.4008 10.5086C17.4008 10.0905 17.244 9.88145 16.9304 9.88145C16.64 9.88145 16.4948 10.0557 16.4948 10.4041V12.1985C16.5878 12.2798 16.7271 12.3205 16.913 12.3205C17.0988 12.3205 17.2265 12.2508 17.2962 12.1114C17.3659 11.9721 17.4008 11.7165 17.4008 11.3449V10.5086ZM18.0454 17.5644C17.302 17.5644 16.6691 17.5122 16.1464 17.4076C16.1116 17.5122 16.0941 17.6109 16.0941 17.7038C16.0941 17.9593 16.2742 18.1335 16.6342 18.2265C17.0059 18.3078 17.4763 18.3484 18.0454 18.3484C19.8572 18.3484 21.402 18.0813 22.6795 17.547C23.9339 17.8722 24.9095 18.5807 25.6064 19.6725C26.1755 20.5668 26.4601 21.6179 26.4601 22.8258C26.4601 24.9745 25.5483 26.6469 23.7248 27.8432C21.9014 29.0395 19.5494 29.6377 16.6691 29.6377C13.8003 29.6377 11.5819 29.1266 10.014 28.1046C8.56215 27.1754 7.83624 25.9675 7.83624 24.4808C7.83624 23.9117 7.96981 23.3659 8.23694 22.8432C8.50407 22.3089 8.81186 21.9431 9.16029 21.7456C9.74102 22.2334 10.5947 22.6283 11.7213 22.9303C12.8595 23.2323 14.0268 23.3833 15.223 23.3833C16.4193 23.3833 17.1859 23.3368 17.5227 23.2439C17.8712 23.151 18.0454 22.9884 18.0454 22.7561C18.0454 22.64 18.0105 22.5238 17.9408 22.4077C17.3601 22.5354 16.6342 22.5993 15.7631 22.5993C13.5215 22.5993 11.7619 22.2799 10.4843 21.6411C8.928 20.8746 8.14983 19.7189 8.14983 18.1742C8.14983 17.5702 8.27179 17.0127 8.51569 16.5017C8.75959 15.979 9.11964 15.59 9.59584 15.3344C8.95704 14.9396 8.41116 14.3414 7.95819 13.54C7.51684 12.7386 7.29617 11.7514 7.29617 10.5783C7.29617 8.34834 8.13241 6.58874 9.8049 5.29954C11.4774 4.01033 13.6493 3.36573 16.3206 3.36573C17.6098 3.36573 18.8526 3.5806 20.0489 4.01033V2.79081C20.7341 2.52368 21.64 2.39011 22.7667 2.39011C23.9049 2.39011 24.7701 2.58175 25.3625 2.96503C26.0826 3.42961 26.4426 4.24843 26.4426 5.42149C26.4426 6.0719 26.3729 6.59455 26.2336 6.98944C26.1058 7.38434 25.9142 7.79665 25.6587 8.22639C25.9606 8.99294 26.1116 9.94533 26.1116 11.0835C26.1116 13.1393 25.3799 14.7363 23.9165 15.8745C22.4647 17.0011 20.5076 17.5644 18.0454 17.5644Z" fill="#FFAEE4"/>
<path d="M16.4948 12.1985H15.4948V12.6523L15.8363 12.9511L16.4948 12.1985ZM16.1464 17.4076L16.3425 16.427L15.4769 16.2539L15.1977 17.0914L16.1464 17.4076ZM16.6342 18.2265L16.3843 19.1947L16.4023 19.1994L16.4205 19.2034L16.6342 18.2265ZM22.6795 17.547L22.9305 16.579L22.6045 16.4945L22.2937 16.6244L22.6795 17.547ZM25.6064 19.6725L26.4501 19.1356L26.4493 19.1344L25.6064 19.6725ZM23.7248 27.8432L23.1763 27.0071L23.7248 27.8432ZM10.014 28.1046L10.5601 27.2668L10.553 27.2623L10.014 28.1046ZM8.23694 22.8432L9.12741 23.2983L9.13137 23.2904L8.23694 22.8432ZM9.16029 21.7456L9.80348 20.9799L9.27161 20.5332L8.66728 20.8756L9.16029 21.7456ZM11.7213 22.9303L11.4624 23.8962L11.4649 23.8969L11.7213 22.9303ZM17.5227 23.2439L17.265 22.2776L17.2568 22.2799L17.5227 23.2439ZM17.9408 22.4077L18.7983 21.8932L18.4283 21.2765L17.726 21.431L17.9408 22.4077ZM10.4843 21.6411L10.9316 20.7467L10.9262 20.744L10.4843 21.6411ZM8.51569 16.5017L9.4182 16.9324L9.42187 16.9246L8.51569 16.5017ZM9.59584 15.3344L10.0687 16.2156L11.5967 15.3957L10.1217 14.4839L9.59584 15.3344ZM7.95819 13.54L7.08219 14.0224L7.08763 14.0321L7.95819 13.54ZM20.0489 4.01033L19.7108 4.95145L21.0489 5.43212V4.01033H20.0489ZM20.0489 2.79081L19.6857 1.8591L19.0489 2.10734V2.79081H20.0489ZM25.3625 2.96503L24.8192 3.8046L24.8204 3.80532L25.3625 2.96503ZM26.2336 6.98944L25.2906 6.65662L25.2862 6.66907L25.2821 6.68162L26.2336 6.98944ZM25.6587 8.22639L24.7991 7.71531L24.5485 8.13674L24.7282 8.59291L25.6587 8.22639ZM23.9165 15.8745L24.5296 16.6646L24.5304 16.6639L23.9165 15.8745ZM18.4008 10.5086C18.4008 10.2034 18.3486 9.79217 18.0832 9.43824C17.7771 9.03022 17.3312 8.88145 16.9304 8.88145V10.8814C16.8987 10.8814 16.8238 10.8761 16.73 10.8345C16.6304 10.7902 16.5447 10.7203 16.4832 10.6382C16.3745 10.4934 16.4008 10.3957 16.4008 10.5086H18.4008ZM16.9304 8.88145C16.5783 8.88145 16.1489 8.99579 15.8355 9.37193C15.5512 9.71314 15.4948 10.1156 15.4948 10.4041H17.4948C17.4948 10.3441 17.5111 10.4853 17.3719 10.6523C17.2982 10.7408 17.2054 10.8049 17.1112 10.8426C17.0231 10.8778 16.9557 10.8814 16.9304 10.8814V8.88145ZM15.4948 10.4041V12.1985H17.4948V10.4041H15.4948ZM15.8363 12.9511C16.1844 13.2556 16.6033 13.3205 16.913 13.3205V11.3205C16.8897 11.3205 16.9065 11.3176 16.9491 11.33C16.9948 11.3433 17.0726 11.3753 17.1533 11.446L15.8363 12.9511ZM16.913 13.3205C17.1279 13.3205 17.3811 13.2803 17.627 13.1461C17.883 13.0065 18.0713 12.7973 18.1907 12.5586L16.4018 11.6642C16.4515 11.5649 16.541 11.4603 16.6693 11.3903C16.7875 11.3259 16.8838 11.3205 16.913 11.3205V13.3205ZM18.1907 12.5586C18.3767 12.1866 18.4008 11.7132 18.4008 11.3449H16.4008C16.4008 11.5034 16.3931 11.6119 16.3838 11.6801C16.3816 11.6962 16.3796 11.7082 16.3779 11.7168C16.3763 11.7254 16.3752 11.7293 16.3753 11.7292C16.3753 11.7292 16.3768 11.7235 16.3805 11.7133C16.3841 11.7031 16.3908 11.6861 16.4018 11.6642L18.1907 12.5586ZM18.4008 11.3449V10.5086H16.4008V11.3449H18.4008ZM18.0454 16.5644C17.3442 16.5644 16.7809 16.5147 16.3425 16.427L15.9503 18.3882C16.5572 18.5096 17.2598 18.5644 18.0454 18.5644V16.5644ZM15.1977 17.0914C15.135 17.2795 15.0941 17.4856 15.0941 17.7038H17.0941C17.0941 17.7362 17.0881 17.7449 17.0951 17.7239L15.1977 17.0914ZM15.0941 17.7038C15.0941 18.0964 15.2447 18.465 15.5337 18.7447C15.7941 18.9967 16.112 19.1245 16.3843 19.1947L16.8841 17.2582C16.7963 17.2355 16.8442 17.2297 16.9246 17.3075C16.9695 17.351 17.0165 17.4134 17.0502 17.4938C17.0838 17.5738 17.0941 17.6479 17.0941 17.7038H15.0941ZM16.4205 19.2034C16.8877 19.3055 17.4361 19.3484 18.0454 19.3484V17.3484C17.5165 17.3484 17.124 17.31 16.8479 17.2496L16.4205 19.2034ZM18.0454 19.3484C19.9508 19.3484 21.6342 19.0681 23.0653 18.4696L22.2937 16.6244C21.1697 17.0945 19.7636 17.3484 18.0454 17.3484V19.3484ZM22.4286 18.515C23.4385 18.7768 24.2026 19.3318 24.7635 20.2105L26.4493 19.1344C25.6164 17.8296 24.4293 16.9676 22.9305 16.579L22.4286 18.515ZM24.7627 20.2093C25.216 20.9217 25.4601 21.7808 25.4601 22.8258H27.4601C27.4601 21.4549 27.135 20.2119 26.4501 19.1356L24.7627 20.2093ZM25.4601 22.8258C25.4601 24.6314 24.7231 25.9923 23.1763 27.0071L24.2734 28.6794C26.3735 27.3016 27.4601 25.3175 27.4601 22.8258H25.4601ZM23.1763 27.0071C21.5605 28.0672 19.4159 28.6377 16.6691 28.6377V30.6377C19.683 30.6377 22.2423 30.0119 24.2734 28.6794L23.1763 27.0071ZM16.6691 28.6377C13.8983 28.6377 11.9005 28.1406 10.56 27.2668L9.46788 28.9423C11.2633 30.1127 13.7023 30.6377 16.6691 30.6377V28.6377ZM10.553 27.2623C9.33481 26.4826 8.83624 25.5674 8.83624 24.4808H6.83624C6.83624 26.3676 7.78949 27.8682 9.4749 28.9468L10.553 27.2623ZM8.83624 24.4808C8.83624 24.075 8.92992 23.6846 9.12738 23.2983L7.34651 22.3881C7.0097 23.0471 6.83624 23.7484 6.83624 24.4808H8.83624ZM9.13137 23.2904C9.35076 22.8516 9.5433 22.678 9.65331 22.6157L8.66728 20.8756C8.08042 21.2082 7.65739 21.7662 7.34251 22.396L9.13137 23.2904ZM8.5171 22.5113C9.25368 23.1301 10.2631 23.5748 11.4624 23.8962L11.9802 21.9644C10.9262 21.6819 10.2284 21.3368 9.80348 20.9799L8.5171 22.5113ZM11.4649 23.8969C12.6881 24.2214 13.9416 24.3833 15.223 24.3833V22.3833C14.1119 22.3833 13.0309 22.2432 11.9777 21.9638L11.4649 23.8969ZM15.223 24.3833C15.8316 24.3833 16.3444 24.3715 16.7557 24.3466C17.1462 24.3229 17.512 24.2842 17.7886 24.2079L17.2568 22.2799C17.1966 22.2965 17.0107 22.3275 16.6347 22.3503C16.2794 22.3718 15.8108 22.3833 15.223 22.3833V24.3833ZM17.7804 24.2101C18.0386 24.1413 18.3438 24.0197 18.597 23.7833C18.8808 23.5184 19.0454 23.1575 19.0454 22.7561H17.0454C17.0454 22.6859 17.0593 22.6009 17.0978 22.5136C17.136 22.4269 17.1874 22.3632 17.2324 22.3212C17.3114 22.2475 17.3552 22.2536 17.2651 22.2777L17.7804 24.2101ZM19.0454 22.7561C19.0454 22.4304 18.9456 22.1386 18.7983 21.8932L17.0833 22.9222C17.0803 22.9172 17.0705 22.8994 17.0614 22.8692C17.0521 22.8382 17.0454 22.7996 17.0454 22.7561H19.0454ZM17.726 21.431C17.2401 21.5379 16.592 21.5993 15.7631 21.5993V23.5993C16.6764 23.5993 17.4801 23.5329 18.1557 23.3843L17.726 21.431ZM15.7631 21.5993C13.5973 21.5993 12.0134 21.2876 10.9316 20.7467L10.0371 22.5355C11.5105 23.2722 13.4458 23.5993 15.7631 23.5993V21.5993ZM10.9262 20.744C10.2666 20.4191 9.83338 20.0425 9.56294 19.6409C9.29694 19.2459 9.14983 18.7701 9.14983 18.1742H7.14983C7.14983 19.123 7.39181 19.9974 7.90398 20.758C8.41171 21.512 9.14574 22.0965 10.0425 22.5382L10.9262 20.744ZM9.14983 18.1742C9.14983 17.7092 9.24269 17.3001 9.41817 16.9324L7.61321 16.071C7.30088 16.7254 7.14983 17.4313 7.14983 18.1742H9.14983ZM9.42187 16.9246C9.58107 16.5835 9.79574 16.362 10.0687 16.2156L9.12302 14.4533C8.44355 14.8179 7.93812 15.3746 7.60951 16.0788L9.42187 16.9246ZM10.1217 14.4839C9.65508 14.1954 9.21737 13.7355 8.82876 13.048L7.08763 14.0321C7.60495 14.9473 8.259 15.6837 9.07001 16.185L10.1217 14.4839ZM8.83414 13.0576C8.49397 12.4399 8.29617 11.6291 8.29617 10.5783H6.29617C6.29617 11.8736 6.53972 13.0373 7.08225 14.0224L8.83414 13.0576ZM8.29617 10.5783C8.29617 8.63828 9.00408 7.17944 10.4154 6.09155L9.19439 4.50753C7.26074 5.99805 6.29617 8.0584 6.29617 10.5783H8.29617ZM10.4154 6.09155C11.8711 4.96944 13.8108 4.36573 16.3206 4.36573V2.36573C13.4878 2.36573 11.0837 3.05122 9.19439 4.50753L10.4154 6.09155ZM16.3206 4.36573C17.4963 4.36573 18.6245 4.56124 19.7108 4.95145L20.3869 3.06921C19.0806 2.59995 17.7234 2.36573 16.3206 2.36573V4.36573ZM21.0489 4.01033V2.79081H19.0489V4.01033H21.0489ZM20.4121 3.72252C20.9369 3.51792 21.7051 3.39011 22.7667 3.39011V1.39011C21.5749 1.39011 20.5313 1.52943 19.6857 1.8591L20.4121 3.72252ZM22.7667 3.39011C23.8195 3.39011 24.46 3.57214 24.8192 3.8046L25.9057 2.12546C25.0803 1.59136 23.9902 1.39011 22.7667 1.39011V3.39011ZM24.8204 3.80532C25.1555 4.02156 25.4426 4.44976 25.4426 5.42149H27.4426C27.4426 4.04709 27.0096 2.83765 25.9046 2.12473L24.8204 3.80532ZM25.4426 5.42149C25.4426 6.01413 25.3773 6.41082 25.2906 6.65662L27.1766 7.32226C27.3686 6.77828 27.4426 6.12967 27.4426 5.42149H25.4426ZM25.2821 6.68162C25.1814 6.99287 25.024 7.33712 24.7991 7.71531L26.5182 8.73746C26.8044 8.25618 27.0302 7.7758 27.185 7.29726L25.2821 6.68162ZM24.7282 8.59291C24.9703 9.20742 25.1116 10.0262 25.1116 11.0835H27.1116C27.1116 9.86444 26.9509 8.77846 26.5891 7.85986L24.7282 8.59291ZM25.1116 11.0835C25.1116 12.8691 24.4936 14.1588 23.3025 15.0852L24.5304 16.6639C26.2662 15.3138 27.1116 13.4095 27.1116 11.0835H25.1116ZM23.3034 15.0845C22.0783 16.0352 20.3608 16.5644 18.0454 16.5644V18.5644C20.6545 18.5644 22.851 17.9671 24.5296 16.6646L23.3034 15.0845Z" fill="white" mask="url(#path-1-outside-1_37_678)"/>
</svg>
