<svg width="198" height="40" viewBox="0 0 198 40" fill="none" xmlns="http://www.w3.org/2000/svg">
<mask id="path-1-outside-1_25_602" maskUnits="userSpaceOnUse" x="8" y="6" width="184" height="30" fill="black">
<rect fill="white" x="8" y="6" width="184" height="30"/>
<path d="M19.4008 15.5086C19.4008 15.0905 19.244 14.8814 18.9304 14.8814C18.64 14.8814 18.4948 15.0557 18.4948 15.4041V17.1985C18.5878 17.2798 18.7271 17.3205 18.913 17.3205C19.0988 17.3205 19.2265 17.2508 19.2962 17.1114C19.3659 16.9721 19.4008 16.7165 19.4008 16.3449V15.5086ZM20.0454 22.5644C19.302 22.5644 18.6691 22.5122 18.1464 22.4076C18.1116 22.5122 18.0941 22.6109 18.0941 22.7038C18.0941 22.9593 18.2742 23.1335 18.6342 23.2265C19.0059 23.3078 19.4763 23.3484 20.0454 23.3484C21.8572 23.3484 23.402 23.0813 24.6795 22.547C25.9339 22.8722 26.9095 23.5807 27.6064 24.6725C28.1755 25.5668 28.4601 26.6179 28.4601 27.8258C28.4601 29.9745 27.5483 31.6469 25.7248 32.8432C23.9014 34.0395 21.5494 34.6377 18.6691 34.6377C15.8003 34.6377 13.5819 34.1266 12.014 33.1046C10.5621 32.1754 9.83624 30.9675 9.83624 29.4808C9.83624 28.9117 9.96981 28.3659 10.2369 27.8432C10.5041 27.3089 10.8119 26.9431 11.1603 26.7456C11.741 27.2334 12.5947 27.6283 13.7213 27.9303C14.8595 28.2323 16.0268 28.3833 17.223 28.3833C18.4193 28.3833 19.1859 28.3368 19.5227 28.2439C19.8712 28.151 20.0454 27.9884 20.0454 27.7561C20.0454 27.64 20.0105 27.5238 19.9408 27.4077C19.3601 27.5354 18.6342 27.5993 17.7631 27.5993C15.5215 27.5993 13.7619 27.2799 12.4843 26.6411C10.928 25.8746 10.1498 24.7189 10.1498 23.1742C10.1498 22.5702 10.2718 22.0127 10.5157 21.5017C10.7596 20.979 11.1196 20.59 11.5958 20.3344C10.957 19.9396 10.4112 19.3414 9.95819 18.54C9.51684 17.7386 9.29617 16.7514 9.29617 15.5783C9.29617 13.3483 10.1324 11.5887 11.8049 10.2995C13.4774 9.01033 15.6493 8.36573 18.3206 8.36573C19.6098 8.36573 20.8526 8.5806 22.0489 9.01033V7.79081C22.7341 7.52368 23.64 7.39011 24.7667 7.39011C25.9049 7.39011 26.7701 7.58175 27.3625 7.96503C28.0826 8.42961 28.4426 9.24843 28.4426 10.4215C28.4426 11.0719 28.3729 11.5946 28.2336 11.9894C28.1058 12.3843 27.9142 12.7967 27.6587 13.2264C27.9606 13.9929 28.1116 14.9453 28.1116 16.0835C28.1116 18.1393 27.3799 19.7363 25.9165 20.8745C24.4647 22.0011 22.5076 22.5644 20.0454 22.5644ZM39.4357 15.5086C39.4357 15.0905 39.2789 14.8814 38.9654 14.8814C38.675 14.8814 38.5298 15.0557 38.5298 15.4041V17.1985C38.6227 17.2798 38.7621 17.3205 38.9479 17.3205C39.1338 17.3205 39.2615 17.2508 39.3312 17.1114C39.4009 16.9721 39.4357 16.7165 39.4357 16.3449V15.5086ZM40.0803 22.5644C39.337 22.5644 38.704 22.5122 38.1814 22.4076C38.1465 22.5122 38.1291 22.6109 38.1291 22.7038C38.1291 22.9593 38.3091 23.1335 38.6692 23.2265C39.0408 23.3078 39.5112 23.3484 40.0803 23.3484C41.8922 23.3484 43.4369 23.0813 44.7145 22.547C45.9689 22.8722 46.9445 23.5807 47.6414 24.6725C48.2105 25.5668 48.495 26.6179 48.495 27.8258C48.495 29.9745 47.5833 31.6469 45.7598 32.8432C43.9363 34.0395 41.5844 34.6377 38.704 34.6377C35.8352 34.6377 33.6169 34.1266 32.0489 33.1046C30.5971 32.1754 29.8712 30.9675 29.8712 29.4808C29.8712 28.9117 30.0048 28.3659 30.2719 27.8432C30.539 27.3089 30.8468 26.9431 31.1953 26.7456C31.776 27.2334 32.6297 27.6283 33.7563 27.9303C34.8945 28.2323 36.0617 28.3833 37.258 28.3833C38.4543 28.3833 39.2209 28.3368 39.5577 28.2439C39.9061 28.151 40.0803 27.9884 40.0803 27.7561C40.0803 27.64 40.0455 27.5238 39.9758 27.4077C39.3951 27.5354 38.6692 27.5993 37.7981 27.5993C35.5565 27.5993 33.7969 27.2799 32.5193 26.6411C30.963 25.8746 30.1848 24.7189 30.1848 23.1742C30.1848 22.5702 30.3068 22.0127 30.5507 21.5017C30.7946 20.979 31.1546 20.59 31.6308 20.3344C30.992 19.9396 30.4461 19.3414 29.9932 18.54C29.5518 17.7386 29.3311 16.7514 29.3311 15.5783C29.3311 13.3483 30.1674 11.5887 31.8399 10.2995C33.5124 9.01033 35.6843 8.36573 38.3556 8.36573C39.6448 8.36573 40.8875 8.5806 42.0838 9.01033V7.79081C42.7691 7.52368 43.675 7.39011 44.8016 7.39011C45.9398 7.39011 46.8051 7.58175 47.3975 7.96503C48.1176 8.42961 48.4776 9.24843 48.4776 10.4215C48.4776 11.0719 48.4079 11.5946 48.2685 11.9894C48.1408 12.3843 47.9491 12.7967 47.6936 13.2264C47.9956 13.9929 48.1466 14.9453 48.1466 16.0835C48.1466 18.1393 47.4149 19.7363 45.9515 20.8745C44.4996 22.0011 42.5426 22.5644 40.0803 22.5644ZM59.2442 20.4041C59.3836 20.4041 59.5346 20.3461 59.6972 20.2299C59.581 19.8466 59.523 19.2485 59.523 18.4355V9.82915C60.7541 9.08582 62.235 8.71416 63.9655 8.71416C64.9411 8.71416 65.7948 8.84773 66.5265 9.11486C67.2698 9.37038 67.8389 9.71301 68.2338 10.1427V19.2195C68.2338 20.95 68.652 22.0766 69.4882 22.5993C69.4998 22.6573 69.5056 22.7677 69.5056 22.9303V23.2439C69.5056 24.9396 69.0585 26.223 68.1641 27.0941C67.3511 27.9071 66.2303 28.3136 64.8018 28.3136C63.9074 28.3136 63.0944 28.1103 62.3627 27.7038C61.6426 27.2973 61.1025 26.705 60.7425 25.9268C60.3476 25.9268 60.1502 26.1185 60.1502 26.5017C60.1502 26.7689 60.2837 27.036 60.5509 27.3031C60.1792 27.6051 59.732 27.849 59.2094 28.0348C58.6867 28.2207 57.9144 28.3136 56.8923 28.3136C55.8818 28.3136 54.8946 28.1045 53.9306 27.6864C52.7343 27.1754 51.8168 26.3914 51.178 25.3345C50.3998 24.0801 50.0107 22.4889 50.0107 20.5609V16.1881C49.4184 15.1544 49.1222 14.0162 49.1222 12.7734C49.1222 12.1346 49.2035 11.4726 49.3661 10.7873C49.5287 10.1021 49.79 9.49233 50.1501 8.95807H53.9829C55.4231 8.95807 56.5497 9.30069 57.3627 9.98595C58.1873 10.6596 58.5996 11.6875 58.5996 13.0696V18.7142C58.5996 19.8408 58.8145 20.4041 59.2442 20.4041ZM79.6276 20.4041C79.767 20.4041 79.918 20.3461 80.0806 20.2299C79.9645 19.8466 79.9064 19.2485 79.9064 18.4355V9.82915C81.1375 9.08582 82.6184 8.71416 84.3489 8.71416C85.3245 8.71416 86.1782 8.84773 86.9099 9.11486C87.6532 9.37038 88.2223 9.71301 88.6172 10.1427V19.2195C88.6172 20.95 89.0354 22.0766 89.8716 22.5993C89.8832 22.6573 89.889 22.7677 89.889 22.9303V23.2439C89.889 24.9396 89.4419 26.223 88.5475 27.0941C87.7345 27.9071 86.6137 28.3136 85.1852 28.3136C84.2908 28.3136 83.4778 28.1103 82.7461 27.7038C82.026 27.2973 81.4859 26.705 81.1259 25.9268C80.731 25.9268 80.5336 26.1185 80.5336 26.5017C80.5336 26.7689 80.6671 27.036 80.9343 27.3031C80.5626 27.6051 80.1154 27.849 79.5928 28.0348C79.0701 28.2207 78.2978 28.3136 77.2757 28.3136C76.2652 28.3136 75.278 28.1045 74.314 27.6864C73.1177 27.1754 72.2002 26.3914 71.5614 25.3345C70.7832 24.0801 70.3941 22.4889 70.3941 20.5609V16.1881C69.8018 15.1544 69.5056 14.0162 69.5056 12.7734C69.5056 12.1346 69.5869 11.4726 69.7495 10.7873C69.9121 10.1021 70.1734 9.49233 70.5335 8.95807H74.3663C75.8065 8.95807 76.9331 9.30069 77.7461 9.98595C78.5707 10.6596 78.983 11.6875 78.983 13.0696V18.7142C78.983 19.8408 79.1979 20.4041 79.6276 20.4041ZM118.879 19.3763C118.879 20.2241 118.972 20.9152 119.158 21.4494C119.343 21.9837 119.669 22.396 120.133 22.6864C120.145 22.7444 120.151 22.8432 120.151 22.9825V23.2439C120.151 24.8351 119.686 26.0778 118.757 26.9721C117.828 27.8664 116.626 28.3136 115.151 28.3136C113.687 28.3136 112.508 27.9129 111.614 27.1115C110.557 26.1823 110.029 24.7596 110.029 22.8432V17.3379C110.029 16.5597 109.773 16.1707 109.262 16.1707C109.065 16.1707 108.908 16.2171 108.792 16.31L109.105 18.9059V22.8432C109.105 24.4227 109.366 25.619 109.889 26.432C109.332 27.0244 108.635 27.489 107.799 27.8258C106.974 28.151 106.132 28.3136 105.272 28.3136C103.879 28.3136 102.799 27.9768 102.032 27.3031C101.103 26.4901 100.638 25.2067 100.638 23.4529V17.3379C100.638 16.5597 100.383 16.1707 99.8717 16.1707C99.6742 16.1707 99.5174 16.2171 99.4013 16.31L99.7149 18.9059V23.5226C99.7149 24.8234 99.8891 25.8281 100.238 26.5366C99.0993 27.7096 97.5023 28.2962 95.4465 28.2962C94.227 28.2962 93.1991 27.9884 92.3629 27.3728C91.3989 26.6643 90.9169 25.7119 90.9169 24.5157V16.1881C90.2316 15.2241 89.889 14.0394 89.889 12.634C89.889 11.2171 90.2316 9.99175 90.9169 8.95807H95.1155C95.9402 8.95807 96.6428 9.26585 97.2236 9.88142C96.7125 10.3576 96.457 10.7525 96.457 11.0661C96.457 11.4261 96.6603 11.6062 97.0668 11.6062C97.5778 10.7235 98.2805 10.0208 99.1748 9.49814C100.22 8.9058 101.445 8.60963 102.851 8.60963C103.919 8.60963 104.854 8.83611 105.656 9.28908C106.469 9.74204 107.073 10.2647 107.468 10.857C108.013 10.1137 108.722 9.55621 109.593 9.18455C110.476 8.80127 111.393 8.60963 112.346 8.60963C114.448 8.60963 116.08 9.26004 117.241 10.5609C118.379 11.8617 118.948 13.6445 118.948 15.9093L118.879 19.3763ZM149.053 19.3763C149.053 20.2241 149.146 20.9152 149.332 21.4494C149.518 21.9837 149.843 22.396 150.308 22.6864C150.319 22.7444 150.325 22.8432 150.325 22.9825V23.2439C150.325 24.8351 149.86 26.0778 148.931 26.9721C148.002 27.8664 146.8 28.3136 145.325 28.3136C143.861 28.3136 142.683 27.9129 141.788 27.1115C140.731 26.1823 140.203 24.7596 140.203 22.8432V17.3379C140.203 16.5597 139.947 16.1707 139.436 16.1707C139.239 16.1707 139.082 16.2171 138.966 16.31L139.28 18.9059V22.8432C139.28 24.4227 139.541 25.619 140.064 26.432C139.506 27.0244 138.809 27.489 137.973 27.8258C137.148 28.151 136.306 28.3136 135.447 28.3136C134.053 28.3136 132.973 27.9768 132.206 27.3031C131.277 26.4901 130.813 25.2067 130.813 23.4529V17.3379C130.813 16.5597 130.557 16.1707 130.046 16.1707C129.849 16.1707 129.692 16.2171 129.576 16.31L129.889 18.9059V23.5226C129.889 24.8234 130.063 25.8281 130.412 26.5366C129.274 27.7096 127.677 28.2962 125.621 28.2962C124.401 28.2962 123.374 27.9884 122.537 27.3728C121.573 26.6643 121.091 25.7119 121.091 24.5157V16.1881C120.406 15.2241 120.063 14.0394 120.063 12.634C120.063 11.2171 120.406 9.99175 121.091 8.95807H125.29C126.115 8.95807 126.817 9.26585 127.398 9.88142C126.887 10.3576 126.631 10.7525 126.631 11.0661C126.631 11.4261 126.835 11.6062 127.241 11.6062C127.752 10.7235 128.455 10.0208 129.349 9.49814C130.395 8.9058 131.62 8.60963 133.025 8.60963C134.094 8.60963 135.029 8.83611 135.83 9.28908C136.643 9.74204 137.247 10.2647 137.642 10.857C138.188 10.1137 138.896 9.55621 139.767 9.18455C140.65 8.80127 141.568 8.60963 142.52 8.60963C144.622 8.60963 146.254 9.26004 147.416 10.5609C148.554 11.8617 149.123 13.6445 149.123 15.9093L149.053 19.3763ZM159.245 19.202V19.6027C159.245 19.7886 159.251 19.9221 159.262 20.0034C159.378 20.0615 159.506 20.0905 159.646 20.0905C159.982 20.0905 160.151 19.835 160.151 19.324C160.151 17.6167 160.244 15.8455 160.43 14.0104C160.627 12.1637 160.836 10.7409 161.057 9.74204C161.998 9.05679 163.252 8.71416 164.82 8.71416C166.388 8.71416 167.596 9.02195 168.444 9.63751C169.303 10.2415 169.733 10.9732 169.733 11.8326C169.733 12.1927 169.518 13.6794 169.088 16.2926C168.612 18.9523 168.002 21.7514 167.259 24.6899C167.108 25.2822 166.835 26.1126 166.44 27.1812C166.057 28.2497 165.644 29.1382 165.203 29.8467C163.821 32.0418 162.114 33.4007 160.081 33.9234C159.129 34.1673 158.171 34.2892 157.207 34.2892C155.337 34.2892 153.891 33.8247 152.869 32.8955C151.928 32.0593 151.457 31.0198 151.457 29.777C151.457 28.5459 151.823 27.3844 152.555 26.2927C152.729 26.2462 153.049 26.223 153.513 26.223C153.978 26.223 154.558 26.2811 155.255 26.3972C157.183 26.7573 158.165 26.9373 158.2 26.9373C158.281 26.9489 158.368 26.9663 158.461 26.9895C158.565 27.0012 158.699 27.007 158.862 27.007C159.024 27.007 159.164 26.9605 159.28 26.8676C159.396 26.7747 159.454 26.5888 159.454 26.3101L155.342 25.5261C154.332 25.108 153.455 24.2311 152.712 22.8954C151.794 21.2462 151.173 19.0104 150.848 16.1881C150.081 15.1892 149.698 13.9929 149.698 12.5992C149.698 11.2055 150.046 9.99175 150.743 8.95807H155.22C156.719 8.95807 157.84 9.3878 158.583 10.2473C159.129 10.8861 159.477 11.821 159.628 13.0522C159.373 15.0731 159.245 17.123 159.245 19.202ZM179.872 19.202V19.6027C179.872 19.7886 179.878 19.9221 179.89 20.0034C180.006 20.0615 180.133 20.0905 180.273 20.0905C180.61 20.0905 180.778 19.835 180.778 19.324C180.778 17.6167 180.871 15.8455 181.057 14.0104C181.254 12.1637 181.463 10.7409 181.684 9.74204C182.625 9.05679 183.879 8.71416 185.447 8.71416C187.015 8.71416 188.223 9.02195 189.071 9.63751C189.93 10.2415 190.36 10.9732 190.36 11.8326C190.36 12.1927 190.145 13.6794 189.715 16.2926C189.239 18.9523 188.629 21.7514 187.886 24.6899C187.735 25.2822 187.462 26.1126 187.067 27.1812C186.684 28.2497 186.272 29.1382 185.83 29.8467C184.448 32.0418 182.741 33.4007 180.708 33.9234C179.756 34.1673 178.798 34.2892 177.834 34.2892C175.964 34.2892 174.518 33.8247 173.496 32.8955C172.555 32.0593 172.085 31.0198 172.085 29.777C172.085 28.5459 172.451 27.3844 173.182 26.2927C173.356 26.2462 173.676 26.223 174.14 26.223C174.605 26.223 175.186 26.2811 175.883 26.3972C177.811 26.7573 178.792 26.9373 178.827 26.9373C178.908 26.9489 178.995 26.9663 179.088 26.9895C179.193 27.0012 179.326 27.007 179.489 27.007C179.651 27.007 179.791 26.9605 179.907 26.8676C180.023 26.7747 180.081 26.5888 180.081 26.3101L175.97 25.5261C174.959 25.108 174.082 24.2311 173.339 22.8954C172.421 21.2462 171.8 19.0104 171.475 16.1881C170.708 15.1892 170.325 13.9929 170.325 12.5992C170.325 11.2055 170.674 9.99175 171.37 8.95807H175.848C177.346 8.95807 178.467 9.3878 179.21 10.2473C179.756 10.8861 180.104 11.821 180.255 13.0522C180 15.0731 179.872 17.123 179.872 19.202Z"/>
</mask>
<path d="M19.4008 15.5086C19.4008 15.0905 19.244 14.8814 18.9304 14.8814C18.64 14.8814 18.4948 15.0557 18.4948 15.4041V17.1985C18.5878 17.2798 18.7271 17.3205 18.913 17.3205C19.0988 17.3205 19.2265 17.2508 19.2962 17.1114C19.3659 16.9721 19.4008 16.7165 19.4008 16.3449V15.5086ZM20.0454 22.5644C19.302 22.5644 18.6691 22.5122 18.1464 22.4076C18.1116 22.5122 18.0941 22.6109 18.0941 22.7038C18.0941 22.9593 18.2742 23.1335 18.6342 23.2265C19.0059 23.3078 19.4763 23.3484 20.0454 23.3484C21.8572 23.3484 23.402 23.0813 24.6795 22.547C25.9339 22.8722 26.9095 23.5807 27.6064 24.6725C28.1755 25.5668 28.4601 26.6179 28.4601 27.8258C28.4601 29.9745 27.5483 31.6469 25.7248 32.8432C23.9014 34.0395 21.5494 34.6377 18.6691 34.6377C15.8003 34.6377 13.5819 34.1266 12.014 33.1046C10.5621 32.1754 9.83624 30.9675 9.83624 29.4808C9.83624 28.9117 9.96981 28.3659 10.2369 27.8432C10.5041 27.3089 10.8119 26.9431 11.1603 26.7456C11.741 27.2334 12.5947 27.6283 13.7213 27.9303C14.8595 28.2323 16.0268 28.3833 17.223 28.3833C18.4193 28.3833 19.1859 28.3368 19.5227 28.2439C19.8712 28.151 20.0454 27.9884 20.0454 27.7561C20.0454 27.64 20.0105 27.5238 19.9408 27.4077C19.3601 27.5354 18.6342 27.5993 17.7631 27.5993C15.5215 27.5993 13.7619 27.2799 12.4843 26.6411C10.928 25.8746 10.1498 24.7189 10.1498 23.1742C10.1498 22.5702 10.2718 22.0127 10.5157 21.5017C10.7596 20.979 11.1196 20.59 11.5958 20.3344C10.957 19.9396 10.4112 19.3414 9.95819 18.54C9.51684 17.7386 9.29617 16.7514 9.29617 15.5783C9.29617 13.3483 10.1324 11.5887 11.8049 10.2995C13.4774 9.01033 15.6493 8.36573 18.3206 8.36573C19.6098 8.36573 20.8526 8.5806 22.0489 9.01033V7.79081C22.7341 7.52368 23.64 7.39011 24.7667 7.39011C25.9049 7.39011 26.7701 7.58175 27.3625 7.96503C28.0826 8.42961 28.4426 9.24843 28.4426 10.4215C28.4426 11.0719 28.3729 11.5946 28.2336 11.9894C28.1058 12.3843 27.9142 12.7967 27.6587 13.2264C27.9606 13.9929 28.1116 14.9453 28.1116 16.0835C28.1116 18.1393 27.3799 19.7363 25.9165 20.8745C24.4647 22.0011 22.5076 22.5644 20.0454 22.5644ZM39.4357 15.5086C39.4357 15.0905 39.2789 14.8814 38.9654 14.8814C38.675 14.8814 38.5298 15.0557 38.5298 15.4041V17.1985C38.6227 17.2798 38.7621 17.3205 38.9479 17.3205C39.1338 17.3205 39.2615 17.2508 39.3312 17.1114C39.4009 16.9721 39.4357 16.7165 39.4357 16.3449V15.5086ZM40.0803 22.5644C39.337 22.5644 38.704 22.5122 38.1814 22.4076C38.1465 22.5122 38.1291 22.6109 38.1291 22.7038C38.1291 22.9593 38.3091 23.1335 38.6692 23.2265C39.0408 23.3078 39.5112 23.3484 40.0803 23.3484C41.8922 23.3484 43.4369 23.0813 44.7145 22.547C45.9689 22.8722 46.9445 23.5807 47.6414 24.6725C48.2105 25.5668 48.495 26.6179 48.495 27.8258C48.495 29.9745 47.5833 31.6469 45.7598 32.8432C43.9363 34.0395 41.5844 34.6377 38.704 34.6377C35.8352 34.6377 33.6169 34.1266 32.0489 33.1046C30.5971 32.1754 29.8712 30.9675 29.8712 29.4808C29.8712 28.9117 30.0048 28.3659 30.2719 27.8432C30.539 27.3089 30.8468 26.9431 31.1953 26.7456C31.776 27.2334 32.6297 27.6283 33.7563 27.9303C34.8945 28.2323 36.0617 28.3833 37.258 28.3833C38.4543 28.3833 39.2209 28.3368 39.5577 28.2439C39.9061 28.151 40.0803 27.9884 40.0803 27.7561C40.0803 27.64 40.0455 27.5238 39.9758 27.4077C39.3951 27.5354 38.6692 27.5993 37.7981 27.5993C35.5565 27.5993 33.7969 27.2799 32.5193 26.6411C30.963 25.8746 30.1848 24.7189 30.1848 23.1742C30.1848 22.5702 30.3068 22.0127 30.5507 21.5017C30.7946 20.979 31.1546 20.59 31.6308 20.3344C30.992 19.9396 30.4461 19.3414 29.9932 18.54C29.5518 17.7386 29.3311 16.7514 29.3311 15.5783C29.3311 13.3483 30.1674 11.5887 31.8399 10.2995C33.5124 9.01033 35.6843 8.36573 38.3556 8.36573C39.6448 8.36573 40.8875 8.5806 42.0838 9.01033V7.79081C42.7691 7.52368 43.675 7.39011 44.8016 7.39011C45.9398 7.39011 46.8051 7.58175 47.3975 7.96503C48.1176 8.42961 48.4776 9.24843 48.4776 10.4215C48.4776 11.0719 48.4079 11.5946 48.2685 11.9894C48.1408 12.3843 47.9491 12.7967 47.6936 13.2264C47.9956 13.9929 48.1466 14.9453 48.1466 16.0835C48.1466 18.1393 47.4149 19.7363 45.9515 20.8745C44.4996 22.0011 42.5426 22.5644 40.0803 22.5644ZM59.2442 20.4041C59.3836 20.4041 59.5346 20.3461 59.6972 20.2299C59.581 19.8466 59.523 19.2485 59.523 18.4355V9.82915C60.7541 9.08582 62.235 8.71416 63.9655 8.71416C64.9411 8.71416 65.7948 8.84773 66.5265 9.11486C67.2698 9.37038 67.8389 9.71301 68.2338 10.1427V19.2195C68.2338 20.95 68.652 22.0766 69.4882 22.5993C69.4998 22.6573 69.5056 22.7677 69.5056 22.9303V23.2439C69.5056 24.9396 69.0585 26.223 68.1641 27.0941C67.3511 27.9071 66.2303 28.3136 64.8018 28.3136C63.9074 28.3136 63.0944 28.1103 62.3627 27.7038C61.6426 27.2973 61.1025 26.705 60.7425 25.9268C60.3476 25.9268 60.1502 26.1185 60.1502 26.5017C60.1502 26.7689 60.2837 27.036 60.5509 27.3031C60.1792 27.6051 59.732 27.849 59.2094 28.0348C58.6867 28.2207 57.9144 28.3136 56.8923 28.3136C55.8818 28.3136 54.8946 28.1045 53.9306 27.6864C52.7343 27.1754 51.8168 26.3914 51.178 25.3345C50.3998 24.0801 50.0107 22.4889 50.0107 20.5609V16.1881C49.4184 15.1544 49.1222 14.0162 49.1222 12.7734C49.1222 12.1346 49.2035 11.4726 49.3661 10.7873C49.5287 10.1021 49.79 9.49233 50.1501 8.95807H53.9829C55.4231 8.95807 56.5497 9.30069 57.3627 9.98595C58.1873 10.6596 58.5996 11.6875 58.5996 13.0696V18.7142C58.5996 19.8408 58.8145 20.4041 59.2442 20.4041ZM79.6276 20.4041C79.767 20.4041 79.918 20.3461 80.0806 20.2299C79.9645 19.8466 79.9064 19.2485 79.9064 18.4355V9.82915C81.1375 9.08582 82.6184 8.71416 84.3489 8.71416C85.3245 8.71416 86.1782 8.84773 86.9099 9.11486C87.6532 9.37038 88.2223 9.71301 88.6172 10.1427V19.2195C88.6172 20.95 89.0354 22.0766 89.8716 22.5993C89.8832 22.6573 89.889 22.7677 89.889 22.9303V23.2439C89.889 24.9396 89.4419 26.223 88.5475 27.0941C87.7345 27.9071 86.6137 28.3136 85.1852 28.3136C84.2908 28.3136 83.4778 28.1103 82.7461 27.7038C82.026 27.2973 81.4859 26.705 81.1259 25.9268C80.731 25.9268 80.5336 26.1185 80.5336 26.5017C80.5336 26.7689 80.6671 27.036 80.9343 27.3031C80.5626 27.6051 80.1154 27.849 79.5928 28.0348C79.0701 28.2207 78.2978 28.3136 77.2757 28.3136C76.2652 28.3136 75.278 28.1045 74.314 27.6864C73.1177 27.1754 72.2002 26.3914 71.5614 25.3345C70.7832 24.0801 70.3941 22.4889 70.3941 20.5609V16.1881C69.8018 15.1544 69.5056 14.0162 69.5056 12.7734C69.5056 12.1346 69.5869 11.4726 69.7495 10.7873C69.9121 10.1021 70.1734 9.49233 70.5335 8.95807H74.3663C75.8065 8.95807 76.9331 9.30069 77.7461 9.98595C78.5707 10.6596 78.983 11.6875 78.983 13.0696V18.7142C78.983 19.8408 79.1979 20.4041 79.6276 20.4041ZM118.879 19.3763C118.879 20.2241 118.972 20.9152 119.158 21.4494C119.343 21.9837 119.669 22.396 120.133 22.6864C120.145 22.7444 120.151 22.8432 120.151 22.9825V23.2439C120.151 24.8351 119.686 26.0778 118.757 26.9721C117.828 27.8664 116.626 28.3136 115.151 28.3136C113.687 28.3136 112.508 27.9129 111.614 27.1115C110.557 26.1823 110.029 24.7596 110.029 22.8432V17.3379C110.029 16.5597 109.773 16.1707 109.262 16.1707C109.065 16.1707 108.908 16.2171 108.792 16.31L109.105 18.9059V22.8432C109.105 24.4227 109.366 25.619 109.889 26.432C109.332 27.0244 108.635 27.489 107.799 27.8258C106.974 28.151 106.132 28.3136 105.272 28.3136C103.879 28.3136 102.799 27.9768 102.032 27.3031C101.103 26.4901 100.638 25.2067 100.638 23.4529V17.3379C100.638 16.5597 100.383 16.1707 99.8717 16.1707C99.6742 16.1707 99.5174 16.2171 99.4013 16.31L99.7149 18.9059V23.5226C99.7149 24.8234 99.8891 25.8281 100.238 26.5366C99.0993 27.7096 97.5023 28.2962 95.4465 28.2962C94.227 28.2962 93.1991 27.9884 92.3629 27.3728C91.3989 26.6643 90.9169 25.7119 90.9169 24.5157V16.1881C90.2316 15.2241 89.889 14.0394 89.889 12.634C89.889 11.2171 90.2316 9.99175 90.9169 8.95807H95.1155C95.9402 8.95807 96.6428 9.26585 97.2236 9.88142C96.7125 10.3576 96.457 10.7525 96.457 11.0661C96.457 11.4261 96.6603 11.6062 97.0668 11.6062C97.5778 10.7235 98.2805 10.0208 99.1748 9.49814C100.22 8.9058 101.445 8.60963 102.851 8.60963C103.919 8.60963 104.854 8.83611 105.656 9.28908C106.469 9.74204 107.073 10.2647 107.468 10.857C108.013 10.1137 108.722 9.55621 109.593 9.18455C110.476 8.80127 111.393 8.60963 112.346 8.60963C114.448 8.60963 116.08 9.26004 117.241 10.5609C118.379 11.8617 118.948 13.6445 118.948 15.9093L118.879 19.3763ZM149.053 19.3763C149.053 20.2241 149.146 20.9152 149.332 21.4494C149.518 21.9837 149.843 22.396 150.308 22.6864C150.319 22.7444 150.325 22.8432 150.325 22.9825V23.2439C150.325 24.8351 149.86 26.0778 148.931 26.9721C148.002 27.8664 146.8 28.3136 145.325 28.3136C143.861 28.3136 142.683 27.9129 141.788 27.1115C140.731 26.1823 140.203 24.7596 140.203 22.8432V17.3379C140.203 16.5597 139.947 16.1707 139.436 16.1707C139.239 16.1707 139.082 16.2171 138.966 16.31L139.28 18.9059V22.8432C139.28 24.4227 139.541 25.619 140.064 26.432C139.506 27.0244 138.809 27.489 137.973 27.8258C137.148 28.151 136.306 28.3136 135.447 28.3136C134.053 28.3136 132.973 27.9768 132.206 27.3031C131.277 26.4901 130.813 25.2067 130.813 23.4529V17.3379C130.813 16.5597 130.557 16.1707 130.046 16.1707C129.849 16.1707 129.692 16.2171 129.576 16.31L129.889 18.9059V23.5226C129.889 24.8234 130.063 25.8281 130.412 26.5366C129.274 27.7096 127.677 28.2962 125.621 28.2962C124.401 28.2962 123.374 27.9884 122.537 27.3728C121.573 26.6643 121.091 25.7119 121.091 24.5157V16.1881C120.406 15.2241 120.063 14.0394 120.063 12.634C120.063 11.2171 120.406 9.99175 121.091 8.95807H125.29C126.115 8.95807 126.817 9.26585 127.398 9.88142C126.887 10.3576 126.631 10.7525 126.631 11.0661C126.631 11.4261 126.835 11.6062 127.241 11.6062C127.752 10.7235 128.455 10.0208 129.349 9.49814C130.395 8.9058 131.62 8.60963 133.025 8.60963C134.094 8.60963 135.029 8.83611 135.83 9.28908C136.643 9.74204 137.247 10.2647 137.642 10.857C138.188 10.1137 138.896 9.55621 139.767 9.18455C140.65 8.80127 141.568 8.60963 142.52 8.60963C144.622 8.60963 146.254 9.26004 147.416 10.5609C148.554 11.8617 149.123 13.6445 149.123 15.9093L149.053 19.3763ZM159.245 19.202V19.6027C159.245 19.7886 159.251 19.9221 159.262 20.0034C159.378 20.0615 159.506 20.0905 159.646 20.0905C159.982 20.0905 160.151 19.835 160.151 19.324C160.151 17.6167 160.244 15.8455 160.43 14.0104C160.627 12.1637 160.836 10.7409 161.057 9.74204C161.998 9.05679 163.252 8.71416 164.82 8.71416C166.388 8.71416 167.596 9.02195 168.444 9.63751C169.303 10.2415 169.733 10.9732 169.733 11.8326C169.733 12.1927 169.518 13.6794 169.088 16.2926C168.612 18.9523 168.002 21.7514 167.259 24.6899C167.108 25.2822 166.835 26.1126 166.44 27.1812C166.057 28.2497 165.644 29.1382 165.203 29.8467C163.821 32.0418 162.114 33.4007 160.081 33.9234C159.129 34.1673 158.171 34.2892 157.207 34.2892C155.337 34.2892 153.891 33.8247 152.869 32.8955C151.928 32.0593 151.457 31.0198 151.457 29.777C151.457 28.5459 151.823 27.3844 152.555 26.2927C152.729 26.2462 153.049 26.223 153.513 26.223C153.978 26.223 154.558 26.2811 155.255 26.3972C157.183 26.7573 158.165 26.9373 158.2 26.9373C158.281 26.9489 158.368 26.9663 158.461 26.9895C158.565 27.0012 158.699 27.007 158.862 27.007C159.024 27.007 159.164 26.9605 159.28 26.8676C159.396 26.7747 159.454 26.5888 159.454 26.3101L155.342 25.5261C154.332 25.108 153.455 24.2311 152.712 22.8954C151.794 21.2462 151.173 19.0104 150.848 16.1881C150.081 15.1892 149.698 13.9929 149.698 12.5992C149.698 11.2055 150.046 9.99175 150.743 8.95807H155.22C156.719 8.95807 157.84 9.3878 158.583 10.2473C159.129 10.8861 159.477 11.821 159.628 13.0522C159.373 15.0731 159.245 17.123 159.245 19.202ZM179.872 19.202V19.6027C179.872 19.7886 179.878 19.9221 179.89 20.0034C180.006 20.0615 180.133 20.0905 180.273 20.0905C180.61 20.0905 180.778 19.835 180.778 19.324C180.778 17.6167 180.871 15.8455 181.057 14.0104C181.254 12.1637 181.463 10.7409 181.684 9.74204C182.625 9.05679 183.879 8.71416 185.447 8.71416C187.015 8.71416 188.223 9.02195 189.071 9.63751C189.93 10.2415 190.36 10.9732 190.36 11.8326C190.36 12.1927 190.145 13.6794 189.715 16.2926C189.239 18.9523 188.629 21.7514 187.886 24.6899C187.735 25.2822 187.462 26.1126 187.067 27.1812C186.684 28.2497 186.272 29.1382 185.83 29.8467C184.448 32.0418 182.741 33.4007 180.708 33.9234C179.756 34.1673 178.798 34.2892 177.834 34.2892C175.964 34.2892 174.518 33.8247 173.496 32.8955C172.555 32.0593 172.085 31.0198 172.085 29.777C172.085 28.5459 172.451 27.3844 173.182 26.2927C173.356 26.2462 173.676 26.223 174.14 26.223C174.605 26.223 175.186 26.2811 175.883 26.3972C177.811 26.7573 178.792 26.9373 178.827 26.9373C178.908 26.9489 178.995 26.9663 179.088 26.9895C179.193 27.0012 179.326 27.007 179.489 27.007C179.651 27.007 179.791 26.9605 179.907 26.8676C180.023 26.7747 180.081 26.5888 180.081 26.3101L175.97 25.5261C174.959 25.108 174.082 24.2311 173.339 22.8954C172.421 21.2462 171.8 19.0104 171.475 16.1881C170.708 15.1892 170.325 13.9929 170.325 12.5992C170.325 11.2055 170.674 9.99175 171.37 8.95807H175.848C177.346 8.95807 178.467 9.3878 179.21 10.2473C179.756 10.8861 180.104 11.821 180.255 13.0522C180 15.0731 179.872 17.123 179.872 19.202Z" fill="#FFAEE4"/>
<path d="M18.4948 17.1985H17.4948V17.6523L17.8363 17.9511L18.4948 17.1985ZM18.1464 22.4076L18.3425 21.427L17.4769 21.2539L17.1977 22.0914L18.1464 22.4076ZM18.6342 23.2265L18.3843 24.1947L18.4023 24.1994L18.4205 24.2034L18.6342 23.2265ZM24.6795 22.547L24.9305 21.579L24.6045 21.4945L24.2937 21.6244L24.6795 22.547ZM27.6064 24.6725L28.4501 24.1356L28.4493 24.1344L27.6064 24.6725ZM25.7248 32.8432L25.1763 32.0071L25.7248 32.8432ZM12.014 33.1046L12.5601 32.2668L12.553 32.2623L12.014 33.1046ZM10.2369 27.8432L11.1274 28.2983L11.1314 28.2904L10.2369 27.8432ZM11.1603 26.7456L11.8035 25.9799L11.2716 25.5332L10.6673 25.8756L11.1603 26.7456ZM13.7213 27.9303L13.4624 28.8962L13.4649 28.8969L13.7213 27.9303ZM19.5227 28.2439L19.265 27.2776L19.2568 27.2799L19.5227 28.2439ZM19.9408 27.4077L20.7983 26.8932L20.4283 26.2765L19.726 26.431L19.9408 27.4077ZM12.4843 26.6411L12.9316 25.7467L12.9262 25.744L12.4843 26.6411ZM10.5157 21.5017L11.4182 21.9324L11.4219 21.9246L10.5157 21.5017ZM11.5958 20.3344L12.0687 21.2156L13.5967 20.3957L12.1217 19.4839L11.5958 20.3344ZM9.95819 18.54L9.08219 19.0224L9.08763 19.0321L9.95819 18.54ZM22.0489 9.01033L21.7108 9.95145L23.0489 10.4321V9.01033H22.0489ZM22.0489 7.79081L21.6857 6.8591L21.0489 7.10734V7.79081H22.0489ZM27.3625 7.96503L26.8192 8.8046L26.8204 8.80532L27.3625 7.96503ZM28.2336 11.9894L27.2906 11.6566L27.2862 11.6691L27.2821 11.6816L28.2336 11.9894ZM27.6587 13.2264L26.7991 12.7153L26.5485 13.1367L26.7282 13.5929L27.6587 13.2264ZM25.9165 20.8745L26.5296 21.6646L26.5304 21.6639L25.9165 20.8745ZM20.4008 15.5086C20.4008 15.2034 20.3486 14.7922 20.0832 14.4382C19.7771 14.0302 19.3312 13.8814 18.9304 13.8814V15.8814C18.8987 15.8814 18.8238 15.8761 18.73 15.8345C18.6304 15.7902 18.5447 15.7203 18.4832 15.6382C18.3745 15.4934 18.4008 15.3957 18.4008 15.5086H20.4008ZM18.9304 13.8814C18.5783 13.8814 18.1489 13.9958 17.8355 14.3719C17.5512 14.7131 17.4948 15.1156 17.4948 15.4041H19.4948C19.4948 15.3441 19.5111 15.4853 19.3719 15.6523C19.2982 15.7408 19.2054 15.8049 19.1112 15.8426C19.0231 15.8778 18.9557 15.8814 18.9304 15.8814V13.8814ZM17.4948 15.4041V17.1985H19.4948V15.4041H17.4948ZM17.8363 17.9511C18.1844 18.2556 18.6033 18.3205 18.913 18.3205V16.3205C18.8897 16.3205 18.9065 16.3176 18.9491 16.33C18.9948 16.3433 19.0726 16.3753 19.1533 16.446L17.8363 17.9511ZM18.913 18.3205C19.1279 18.3205 19.3811 18.2803 19.627 18.1461C19.883 18.0065 20.0713 17.7973 20.1907 17.5586L18.4018 16.6642C18.4515 16.5649 18.541 16.4603 18.6693 16.3903C18.7875 16.3259 18.8838 16.3205 18.913 16.3205V18.3205ZM20.1907 17.5586C20.3767 17.1866 20.4008 16.7132 20.4008 16.3449H18.4008C18.4008 16.5034 18.3931 16.6119 18.3838 16.6801C18.3816 16.6962 18.3796 16.7082 18.3779 16.7168C18.3763 16.7254 18.3752 16.7293 18.3753 16.7292C18.3753 16.7292 18.3768 16.7235 18.3805 16.7133C18.3841 16.7031 18.3908 16.6861 18.4018 16.6642L20.1907 17.5586ZM20.4008 16.3449V15.5086H18.4008V16.3449H20.4008ZM20.0454 21.5644C19.3442 21.5644 18.7809 21.5147 18.3425 21.427L17.9503 23.3882C18.5572 23.5096 19.2598 23.5644 20.0454 23.5644V21.5644ZM17.1977 22.0914C17.135 22.2795 17.0941 22.4856 17.0941 22.7038H19.0941C19.0941 22.7362 19.0881 22.7449 19.0951 22.7239L17.1977 22.0914ZM17.0941 22.7038C17.0941 23.0964 17.2447 23.465 17.5337 23.7447C17.7941 23.9967 18.112 24.1245 18.3843 24.1947L18.8841 22.2582C18.7963 22.2355 18.8442 22.2297 18.9246 22.3075C18.9695 22.351 19.0165 22.4134 19.0502 22.4938C19.0838 22.5738 19.0941 22.6479 19.0941 22.7038H17.0941ZM18.4205 24.2034C18.8877 24.3055 19.4361 24.3484 20.0454 24.3484V22.3484C19.5165 22.3484 19.124 22.31 18.8479 22.2496L18.4205 24.2034ZM20.0454 24.3484C21.9508 24.3484 23.6342 24.0681 25.0653 23.4696L24.2937 21.6244C23.1697 22.0945 21.7636 22.3484 20.0454 22.3484V24.3484ZM24.4286 23.515C25.4385 23.7768 26.2026 24.3318 26.7635 25.2105L28.4493 24.1344C27.6164 22.8296 26.4293 21.9676 24.9305 21.579L24.4286 23.515ZM26.7627 25.2093C27.216 25.9217 27.4601 26.7808 27.4601 27.8258H29.4601C29.4601 26.4549 29.135 25.2119 28.4501 24.1356L26.7627 25.2093ZM27.4601 27.8258C27.4601 29.6314 26.7231 30.9923 25.1763 32.0071L26.2734 33.6794C28.3735 32.3016 29.4601 30.3175 29.4601 27.8258H27.4601ZM25.1763 32.0071C23.5605 33.0672 21.4159 33.6377 18.6691 33.6377V35.6377C21.683 35.6377 24.2423 35.0119 26.2734 33.6794L25.1763 32.0071ZM18.6691 33.6377C15.8983 33.6377 13.9005 33.1406 12.56 32.2668L11.4679 33.9423C13.2633 35.1127 15.7023 35.6377 18.6691 35.6377V33.6377ZM12.553 32.2623C11.3348 31.4826 10.8362 30.5674 10.8362 29.4808H8.83624C8.83624 31.3676 9.78949 32.8682 11.4749 33.9468L12.553 32.2623ZM10.8362 29.4808C10.8362 29.075 10.9299 28.6846 11.1274 28.2983L9.34651 27.3881C9.0097 28.0471 8.83624 28.7484 8.83624 29.4808H10.8362ZM11.1314 28.2904C11.3508 27.8516 11.5433 27.678 11.6533 27.6157L10.6673 25.8756C10.0804 26.2082 9.65739 26.7662 9.34251 27.396L11.1314 28.2904ZM10.5171 27.5113C11.2537 28.1301 12.2631 28.5748 13.4624 28.8962L13.9802 26.9644C12.9262 26.6819 12.2284 26.3368 11.8035 25.9799L10.5171 27.5113ZM13.4649 28.8969C14.6881 29.2214 15.9416 29.3833 17.223 29.3833V27.3833C16.1119 27.3833 15.0309 27.2432 13.9777 26.9638L13.4649 28.8969ZM17.223 29.3833C17.8316 29.3833 18.3444 29.3715 18.7557 29.3466C19.1462 29.3229 19.512 29.2842 19.7886 29.2079L19.2568 27.2799C19.1966 27.2965 19.0107 27.3275 18.6347 27.3503C18.2794 27.3718 17.8108 27.3833 17.223 27.3833V29.3833ZM19.7804 29.2101C20.0386 29.1413 20.3438 29.0197 20.597 28.7833C20.8808 28.5184 21.0454 28.1575 21.0454 27.7561H19.0454C19.0454 27.6859 19.0593 27.6009 19.0978 27.5136C19.136 27.4269 19.1874 27.3632 19.2324 27.3212C19.3114 27.2475 19.3552 27.2536 19.2651 27.2777L19.7804 29.2101ZM21.0454 27.7561C21.0454 27.4304 20.9456 27.1386 20.7983 26.8932L19.0833 27.9222C19.0803 27.9172 19.0705 27.8994 19.0614 27.8692C19.0521 27.8382 19.0454 27.7996 19.0454 27.7561H21.0454ZM19.726 26.431C19.2401 26.5379 18.592 26.5993 17.7631 26.5993V28.5993C18.6764 28.5993 19.4801 28.5329 20.1557 28.3843L19.726 26.431ZM17.7631 26.5993C15.5973 26.5993 14.0134 26.2876 12.9316 25.7467L12.0371 27.5355C13.5105 28.2722 15.4458 28.5993 17.7631 28.5993V26.5993ZM12.9262 25.744C12.2666 25.4191 11.8334 25.0425 11.5629 24.6409C11.2969 24.2459 11.1498 23.7701 11.1498 23.1742H9.14983C9.14983 24.123 9.39181 24.9974 9.90398 25.758C10.4117 26.512 11.1457 27.0965 12.0425 27.5382L12.9262 25.744ZM11.1498 23.1742C11.1498 22.7092 11.2427 22.3001 11.4182 21.9324L9.61321 21.071C9.30088 21.7254 9.14983 22.4313 9.14983 23.1742H11.1498ZM11.4219 21.9246C11.5811 21.5835 11.7957 21.362 12.0687 21.2156L11.123 19.4533C10.4435 19.8179 9.93812 20.3746 9.60951 21.0788L11.4219 21.9246ZM12.1217 19.4839C11.6551 19.1954 11.2174 18.7355 10.8288 18.048L9.08763 19.0321C9.60495 19.9473 10.259 20.6837 11.07 21.185L12.1217 19.4839ZM10.8341 18.0576C10.494 17.4399 10.2962 16.6291 10.2962 15.5783H8.29617C8.29617 16.8736 8.53972 18.0373 9.08225 19.0224L10.8341 18.0576ZM10.2962 15.5783C10.2962 13.6383 11.0041 12.1794 12.4154 11.0915L11.1944 9.50753C9.26074 10.998 8.29617 13.0584 8.29617 15.5783H10.2962ZM12.4154 11.0915C13.8711 9.96944 15.8108 9.36573 18.3206 9.36573V7.36573C15.4878 7.36573 13.0837 8.05122 11.1944 9.50753L12.4154 11.0915ZM18.3206 9.36573C19.4963 9.36573 20.6245 9.56124 21.7108 9.95145L22.3869 8.06921C21.0806 7.59995 19.7234 7.36573 18.3206 7.36573V9.36573ZM23.0489 9.01033V7.79081H21.0489V9.01033H23.0489ZM22.4121 8.72252C22.9369 8.51792 23.7051 8.39011 24.7667 8.39011V6.39011C23.5749 6.39011 22.5313 6.52943 21.6857 6.8591L22.4121 8.72252ZM24.7667 8.39011C25.8195 8.39011 26.46 8.57214 26.8192 8.8046L27.9057 7.12546C27.0803 6.59136 25.9902 6.39011 24.7667 6.39011V8.39011ZM26.8204 8.80532C27.1555 9.02156 27.4426 9.44976 27.4426 10.4215H29.4426C29.4426 9.04709 29.0096 7.83765 27.9046 7.12473L26.8204 8.80532ZM27.4426 10.4215C27.4426 11.0141 27.3773 11.4108 27.2906 11.6566L29.1766 12.3223C29.3686 11.7783 29.4426 11.1297 29.4426 10.4215H27.4426ZM27.2821 11.6816C27.1814 11.9929 27.024 12.3371 26.7991 12.7153L28.5182 13.7375C28.8044 13.2562 29.0302 12.7758 29.185 12.2973L27.2821 11.6816ZM26.7282 13.5929C26.9703 14.2074 27.1116 15.0262 27.1116 16.0835H29.1116C29.1116 14.8644 28.9509 13.7785 28.5891 12.8599L26.7282 13.5929ZM27.1116 16.0835C27.1116 17.8691 26.4936 19.1588 25.3025 20.0852L26.5304 21.6639C28.2662 20.3138 29.1116 18.4095 29.1116 16.0835H27.1116ZM25.3034 20.0845C24.0783 21.0352 22.3608 21.5644 20.0454 21.5644V23.5644C22.6545 23.5644 24.851 22.9671 26.5296 21.6646L25.3034 20.0845ZM38.5298 17.1985H37.5298V17.6523L37.8713 17.9511L38.5298 17.1985ZM38.1814 22.4076L38.3775 21.427L37.5119 21.2539L37.2327 22.0914L38.1814 22.4076ZM38.6692 23.2265L38.4193 24.1947L38.4373 24.1994L38.4555 24.2034L38.6692 23.2265ZM44.7145 22.547L44.9655 21.579L44.6394 21.4945L44.3287 21.6244L44.7145 22.547ZM47.6414 24.6725L48.485 24.1356L48.4843 24.1344L47.6414 24.6725ZM45.7598 32.8432L45.2113 32.0071L45.7598 32.8432ZM32.0489 33.1046L32.595 32.2668L32.588 32.2623L32.0489 33.1046ZM30.2719 27.8432L31.1624 28.2983L31.1663 28.2904L30.2719 27.8432ZM31.1953 26.7456L31.8385 25.9799L31.3066 25.5332L30.7023 25.8756L31.1953 26.7456ZM33.7563 27.9303L33.4974 28.8962L33.4998 28.8969L33.7563 27.9303ZM39.5577 28.2439L39.3 27.2776L39.2918 27.2799L39.5577 28.2439ZM39.9758 27.4077L40.8333 26.8932L40.4633 26.2765L39.7609 26.431L39.9758 27.4077ZM32.5193 26.6411L32.9665 25.7467L32.9612 25.744L32.5193 26.6411ZM30.5507 21.5017L31.4532 21.9324L31.4568 21.9246L30.5507 21.5017ZM31.6308 20.3344L32.1036 21.2156L33.6317 20.3957L32.1566 19.4839L31.6308 20.3344ZM29.9932 18.54L29.1172 19.0224L29.1226 19.0321L29.9932 18.54ZM42.0838 9.01033L41.7458 9.95145L43.0838 10.4321V9.01033H42.0838ZM42.0838 7.79081L41.7206 6.8591L41.0838 7.10734V7.79081H42.0838ZM47.3975 7.96503L46.8542 8.8046L46.8553 8.80532L47.3975 7.96503ZM48.2685 11.9894L47.3256 11.6566L47.3212 11.6691L47.3171 11.6816L48.2685 11.9894ZM47.6936 13.2264L46.8341 12.7153L46.5835 13.1367L46.7632 13.5929L47.6936 13.2264ZM45.9515 20.8745L46.5645 21.6646L46.5654 21.6639L45.9515 20.8745ZM40.4357 15.5086C40.4357 15.2034 40.3836 14.7922 40.1181 14.4382C39.8121 14.0302 39.3661 13.8814 38.9654 13.8814V15.8814C38.9337 15.8814 38.8588 15.8761 38.765 15.8345C38.6654 15.7902 38.5797 15.7203 38.5181 15.6382C38.4095 15.4934 38.4357 15.3957 38.4357 15.5086H40.4357ZM38.9654 13.8814C38.6132 13.8814 38.1839 13.9958 37.8705 14.3719C37.5861 14.7131 37.5298 15.1156 37.5298 15.4041H39.5298C39.5298 15.3441 39.5461 15.4853 39.4069 15.6523C39.3332 15.7408 39.2404 15.8049 39.1462 15.8426C39.0581 15.8778 38.9907 15.8814 38.9654 15.8814V13.8814ZM37.5298 15.4041V17.1985H39.5298V15.4041H37.5298ZM37.8713 17.9511C38.2193 18.2556 38.6383 18.3205 38.9479 18.3205V16.3205C38.9247 16.3205 38.9415 16.3176 38.984 16.33C39.0297 16.3433 39.1076 16.3753 39.1883 16.446L37.8713 17.9511ZM38.9479 18.3205C39.1629 18.3205 39.416 18.2803 39.662 18.1461C39.918 18.0065 40.1063 17.7973 40.2256 17.5586L38.4368 16.6642C38.4864 16.5649 38.576 16.4603 38.7043 16.3903C38.8224 16.3259 38.9188 16.3205 38.9479 16.3205V18.3205ZM40.2256 17.5586C40.4116 17.1866 40.4357 16.7132 40.4357 16.3449H38.4357C38.4357 16.5034 38.4281 16.6119 38.4188 16.6801C38.4166 16.6962 38.4145 16.7082 38.4129 16.7168C38.4112 16.7254 38.4102 16.7293 38.4102 16.7292C38.4102 16.7292 38.4117 16.7235 38.4154 16.7133C38.4191 16.7031 38.4258 16.6861 38.4368 16.6642L40.2256 17.5586ZM40.4357 16.3449V15.5086H38.4357V16.3449H40.4357ZM40.0803 21.5644C39.3792 21.5644 38.8159 21.5147 38.3775 21.427L37.9853 23.3882C38.5922 23.5096 39.2948 23.5644 40.0803 23.5644V21.5644ZM37.2327 22.0914C37.17 22.2795 37.1291 22.4856 37.1291 22.7038H39.1291C39.1291 22.7362 39.1231 22.7449 39.1301 22.7239L37.2327 22.0914ZM37.1291 22.7038C37.1291 23.0964 37.2797 23.465 37.5687 23.7447C37.8291 23.9967 38.147 24.1245 38.4193 24.1947L38.9191 22.2582C38.8313 22.2355 38.8792 22.2297 38.9595 22.3075C39.0045 22.351 39.0515 22.4134 39.0852 22.4938C39.1187 22.5738 39.1291 22.6479 39.1291 22.7038H37.1291ZM38.4555 24.2034C38.9227 24.3055 39.471 24.3484 40.0803 24.3484V22.3484C39.5514 22.3484 39.159 22.31 38.8829 22.2496L38.4555 24.2034ZM40.0803 24.3484C41.9858 24.3484 43.6691 24.0681 45.1003 23.4696L44.3287 21.6244C43.2047 22.0945 41.7986 22.3484 40.0803 22.3484V24.3484ZM44.4636 23.515C45.4735 23.7768 46.2376 24.3318 46.7984 25.2105L48.4843 24.1344C47.6514 22.8296 46.4643 21.9676 44.9655 21.579L44.4636 23.515ZM46.7977 25.2093C47.251 25.9217 47.495 26.7808 47.495 27.8258H49.495C49.495 26.4549 49.1699 25.2119 48.485 24.1356L46.7977 25.2093ZM47.495 27.8258C47.495 29.6314 46.7581 30.9923 45.2113 32.0071L46.3084 33.6794C48.4085 32.3016 49.495 30.3175 49.495 27.8258H47.495ZM45.2113 32.0071C43.5955 33.0672 41.4509 33.6377 38.704 33.6377V35.6377C41.7179 35.6377 44.2772 35.0119 46.3084 33.6794L45.2113 32.0071ZM38.704 33.6377C35.9333 33.6377 33.9355 33.1406 32.595 32.2668L31.5029 33.9423C33.2983 35.1127 35.7372 35.6377 38.704 35.6377V33.6377ZM32.588 32.2623C31.3698 31.4826 30.8712 30.5674 30.8712 29.4808H28.8712C28.8712 31.3676 29.8245 32.8682 31.5099 33.9468L32.588 32.2623ZM30.8712 29.4808C30.8712 29.075 30.9649 28.6846 31.1623 28.2983L29.3815 27.3881C29.0447 28.0471 28.8712 28.7484 28.8712 29.4808H30.8712ZM31.1663 28.2904C31.3857 27.8516 31.5783 27.678 31.6883 27.6157L30.7023 25.8756C30.1154 26.2082 29.6924 26.7662 29.3775 27.396L31.1663 28.2904ZM30.5521 27.5113C31.2887 28.1301 32.2981 28.5748 33.4974 28.8962L34.0152 26.9644C32.9612 26.6819 32.2633 26.3368 31.8385 25.9799L30.5521 27.5113ZM33.4998 28.8969C34.723 29.2214 35.9766 29.3833 37.258 29.3833V27.3833C36.1469 27.3833 35.0659 27.2432 34.0127 26.9638L33.4998 28.8969ZM37.258 29.3833C37.8666 29.3833 38.3794 29.3715 38.7907 29.3466C39.1812 29.3229 39.5469 29.2842 39.8236 29.2079L39.2918 27.2799C39.2316 27.2965 39.0457 27.3275 38.6697 27.3503C38.3144 27.3718 37.8458 27.3833 37.258 27.3833V29.3833ZM39.8154 29.2101C40.0736 29.1413 40.3788 29.0197 40.632 28.7833C40.9158 28.5184 41.0803 28.1575 41.0803 27.7561H39.0803C39.0803 27.6859 39.0942 27.6009 39.1328 27.5136C39.171 27.4269 39.2224 27.3632 39.2674 27.3212C39.3464 27.2475 39.3902 27.2536 39.3 27.2777L39.8154 29.2101ZM41.0803 27.7561C41.0803 27.4304 40.9805 27.1386 40.8333 26.8932L39.1183 27.9222C39.1153 27.9172 39.1054 27.8994 39.0964 27.8692C39.0871 27.8382 39.0803 27.7996 39.0803 27.7561H41.0803ZM39.7609 26.431C39.2751 26.5379 38.627 26.5993 37.7981 26.5993V28.5993C38.7113 28.5993 39.5151 28.5329 40.1907 28.3843L39.7609 26.431ZM37.7981 26.5993C35.6323 26.5993 34.0483 26.2876 32.9665 25.7467L32.0721 27.5355C33.5455 28.2722 35.4807 28.5993 37.7981 28.5993V26.5993ZM32.9612 25.744C32.3016 25.4191 31.8684 25.0425 31.5979 24.6409C31.3319 24.2459 31.1848 23.7701 31.1848 23.1742H29.1848C29.1848 24.123 29.4268 24.9974 29.939 25.758C30.4467 26.512 31.1807 27.0965 32.0775 27.5382L32.9612 25.744ZM31.1848 23.1742C31.1848 22.7092 31.2777 22.3001 31.4531 21.9324L29.6482 21.071C29.3359 21.7254 29.1848 22.4313 29.1848 23.1742H31.1848ZM31.4568 21.9246C31.616 21.5835 31.8307 21.362 32.1036 21.2156L31.158 19.4533C30.4785 19.8179 29.9731 20.3746 29.6445 21.0788L31.4568 21.9246ZM32.1566 19.4839C31.6901 19.1954 31.2523 18.7355 30.8637 18.048L29.1226 19.0321C29.6399 19.9473 30.294 20.6837 31.105 21.185L32.1566 19.4839ZM30.8691 18.0576C30.5289 17.4399 30.3311 16.6291 30.3311 15.5783H28.3311C28.3311 16.8736 28.5747 18.0373 29.1172 19.0224L30.8691 18.0576ZM30.3311 15.5783C30.3311 13.6383 31.0391 12.1794 32.4504 11.0915L31.2294 9.50753C29.2957 10.998 28.3311 13.0584 28.3311 15.5783H30.3311ZM32.4504 11.0915C33.9061 9.96944 35.8458 9.36573 38.3556 9.36573V7.36573C35.5228 7.36573 33.1186 8.05122 31.2294 9.50753L32.4504 11.0915ZM38.3556 9.36573C39.5312 9.36573 40.6595 9.56124 41.7458 9.95145L42.4219 8.06921C41.1156 7.59995 39.7584 7.36573 38.3556 7.36573V9.36573ZM43.0838 9.01033V7.79081H41.0838V9.01033H43.0838ZM42.447 8.72252C42.9719 8.51792 43.7401 8.39011 44.8016 8.39011V6.39011C43.6099 6.39011 42.5663 6.52943 41.7206 6.8591L42.447 8.72252ZM44.8016 8.39011C45.8545 8.39011 46.495 8.57214 46.8542 8.8046L47.9407 7.12546C47.1153 6.59136 46.0252 6.39011 44.8016 6.39011V8.39011ZM46.8553 8.80532C47.1905 9.02156 47.4776 9.44976 47.4776 10.4215L49.4776 10.4215C49.4776 9.04709 49.0446 7.83765 47.9396 7.12473L46.8553 8.80532ZM47.4776 10.4215C47.4776 11.0141 47.4123 11.4108 47.3256 11.6566L49.2115 12.3223C49.4035 11.7783 49.4776 11.1297 49.4776 10.4215L47.4776 10.4215ZM47.3171 11.6816C47.2164 11.9929 47.059 12.3371 46.8341 12.7153L48.5532 13.7375C48.8393 13.2562 49.0652 12.7758 49.22 12.2973L47.3171 11.6816ZM46.7632 13.5929C47.0053 14.2074 47.1466 15.0262 47.1466 16.0835H49.1466C49.1466 14.8644 48.9859 13.7785 48.624 12.8599L46.7632 13.5929ZM47.1466 16.0835C47.1466 17.8691 46.5286 19.1588 45.3375 20.0852L46.5654 21.6639C48.3012 20.3138 49.1466 18.4095 49.1466 16.0835H47.1466ZM45.3384 20.0845C44.1133 21.0352 42.3957 21.5644 40.0803 21.5644V23.5644C42.6895 23.5644 44.886 22.9671 46.5645 21.6646L45.3384 20.0845ZM59.6972 20.2299L60.2784 21.0436L60.8623 20.6266L60.6542 19.9399L59.6972 20.2299ZM59.523 9.82915L59.0061 8.97309L58.523 9.26479V9.82915H59.523ZM66.5265 9.11486L66.1836 10.0542L66.1925 10.0575L66.2014 10.0605L66.5265 9.11486ZM68.2338 10.1427H69.2338V9.75305L68.9702 9.46612L68.2338 10.1427ZM69.4882 22.5993L70.4688 22.4032L70.3841 21.98L70.0182 21.7513L69.4882 22.5993ZM68.1641 27.0941L67.4663 26.3777L67.457 26.387L68.1641 27.0941ZM62.3627 27.7038L61.8711 28.5747L61.8771 28.578L62.3627 27.7038ZM60.7425 25.9268L61.6501 25.5069L61.3817 24.9268H60.7425V25.9268ZM60.5509 27.3031L61.1814 28.0792L62.042 27.3801L61.258 26.596L60.5509 27.3031ZM53.9306 27.6864L54.3285 26.769L54.3234 26.7668L53.9306 27.6864ZM51.178 25.3345L52.0339 24.8172L52.0277 24.8073L51.178 25.3345ZM50.0107 16.1881H51.0107V15.9219L50.8784 15.6909L50.0107 16.1881ZM49.3661 10.7873L48.3931 10.5565L49.3661 10.7873ZM50.1501 8.95807V7.95807H49.6181L49.3208 8.39921L50.1501 8.95807ZM57.3627 9.98595L56.7182 10.7506L56.7241 10.7555L56.73 10.7604L57.3627 9.98595ZM59.2442 21.4041C59.6647 21.4041 60.017 21.2304 60.2784 21.0436L59.116 19.4162C59.088 19.4362 59.0838 19.4346 59.103 19.4272C59.124 19.4192 59.1731 19.4041 59.2442 19.4041V21.4041ZM60.6542 19.9399C60.5829 19.7045 60.523 19.2296 60.523 18.4355H58.523C58.523 19.2674 58.5792 19.9887 58.7402 20.5199L60.6542 19.9399ZM60.523 18.4355V9.82915H58.523V18.4355H60.523ZM60.0398 10.6852C61.086 10.0536 62.3799 9.71416 63.9655 9.71416V7.71416C62.09 7.71416 60.4222 8.11806 59.0061 8.97309L60.0398 10.6852ZM63.9655 9.71416C64.8525 9.71416 65.5855 9.83589 66.1836 10.0542L66.8694 8.1755C66.0041 7.85957 65.0298 7.71416 63.9655 7.71416V9.71416ZM66.2014 10.0605C66.8397 10.28 67.2474 10.5472 67.4975 10.8194L68.9702 9.46612C68.4304 8.87877 67.7 8.4608 66.8516 8.16917L66.2014 10.0605ZM67.2338 10.1427V19.2195H69.2338V10.1427H67.2338ZM67.2338 19.2195C67.2338 21.0347 67.6619 22.6371 68.9582 23.4473L70.0182 21.7513C69.642 21.5161 69.2338 20.8653 69.2338 19.2195H67.2338ZM68.5076 22.7954C68.5048 22.7812 68.5031 22.7706 68.5023 22.7649C68.5015 22.759 68.5011 22.7557 68.5011 22.7555C68.5011 22.7553 68.5013 22.757 68.5016 22.7611C68.5019 22.7651 68.5023 22.7707 68.5026 22.7781C68.5043 22.8098 68.5056 22.8592 68.5056 22.9303H70.5056C70.5056 22.778 70.5026 22.5723 70.4688 22.4032L68.5076 22.7954ZM68.5056 22.9303V23.2439H70.5056V22.9303H68.5056ZM68.5056 23.2439C68.5056 24.7694 68.1062 25.7546 67.4664 26.3777L68.8619 27.8104C70.0107 26.6914 70.5056 25.1098 70.5056 23.2439H68.5056ZM67.457 26.387C66.8748 26.9692 66.0332 27.3136 64.8018 27.3136V29.3136C66.4275 29.3136 67.8275 28.8449 68.8713 27.8012L67.457 26.387ZM64.8018 27.3136C64.0654 27.3136 63.4214 27.148 62.8484 26.8297L61.8771 28.578C62.7675 29.0727 63.7495 29.3136 64.8018 29.3136V27.3136ZM62.8543 26.833C62.3237 26.5335 61.9256 26.1024 61.6501 25.5069L59.8349 26.3467C60.2795 27.3076 60.9615 28.0612 61.8711 28.5747L62.8543 26.833ZM60.7425 24.9268C60.3983 24.9268 59.9551 25.0101 59.6018 25.353C59.2429 25.7012 59.1502 26.1482 59.1502 26.5017H61.1502C61.1502 26.4719 61.1561 26.6315 60.9947 26.7881C60.8389 26.9394 60.6918 26.9268 60.7425 26.9268V24.9268ZM59.1502 26.5017C59.1502 27.1276 59.4676 27.6341 59.8437 28.0102L61.258 26.596C61.1812 26.5193 61.1527 26.4711 61.1448 26.4552C61.1391 26.4439 61.1502 26.4625 61.1502 26.5017H59.1502ZM59.9203 26.527C59.6497 26.7468 59.3064 26.939 58.8744 27.0926L59.5444 28.9771C60.1576 28.759 60.7087 28.4634 61.1814 28.0792L59.9203 26.527ZM58.8744 27.0926C58.5147 27.2205 57.8795 27.3136 56.8923 27.3136V29.3136C57.9492 29.3136 58.8587 29.2208 59.5444 28.9771L58.8744 27.0926ZM56.8923 27.3136C56.0242 27.3136 55.1721 27.1349 54.3285 26.769L53.5327 28.6038C54.6172 29.0742 55.7395 29.3136 56.8923 29.3136V27.3136ZM54.3234 26.7668C53.3089 26.3334 52.5582 25.6849 52.0338 24.8172L50.3221 25.8517C51.0753 27.0979 52.1597 28.0173 53.5378 28.606L54.3234 26.7668ZM52.0277 24.8073C51.3736 23.7528 51.0107 22.3585 51.0107 20.5609H49.0107C49.0107 22.6193 49.426 24.4074 50.3282 25.8616L52.0277 24.8073ZM51.0107 20.5609V16.1881H49.0107V20.5609H51.0107ZM50.8784 15.6909C50.3766 14.8152 50.1222 13.8496 50.1222 12.7734H48.1222C48.1222 14.1828 48.4602 15.4936 49.1431 16.6853L50.8784 15.6909ZM50.1222 12.7734C50.1222 12.2198 50.1926 11.6355 50.3391 11.0182L48.3931 10.5565C48.2144 11.3097 48.1222 12.0494 48.1222 12.7734H50.1222ZM50.3391 11.0182C50.4765 10.4391 50.6926 9.9425 50.9794 9.51692L49.3208 8.39921C48.8875 9.04217 48.5809 9.76505 48.3931 10.5565L50.3391 11.0182ZM50.1501 9.95807H53.9829V7.95807H50.1501V9.95807ZM53.9829 9.95807C55.271 9.95807 56.1406 10.2638 56.7182 10.7506L58.0072 9.22132C56.9587 8.33761 55.5751 7.95807 53.9829 7.95807V9.95807ZM56.73 10.7604C57.2566 11.1905 57.5996 11.8912 57.5996 13.0696H59.5996C59.5996 11.4837 59.1181 10.1287 57.9953 9.2115L56.73 10.7604ZM57.5996 13.0696V18.7142H59.5996V13.0696H57.5996ZM57.5996 18.7142C57.5996 19.3124 57.6528 19.8827 57.8264 20.3381C57.916 20.5729 58.0605 20.8386 58.3042 21.0515C58.5678 21.2819 58.8959 21.4041 59.2442 21.4041V19.4041C59.3777 19.4041 59.5178 19.456 59.6202 19.5455C59.7028 19.6176 59.713 19.6721 59.6951 19.6253C59.6786 19.5821 59.6525 19.4895 59.6319 19.3274C59.6118 19.1689 59.5996 18.9663 59.5996 18.7142H57.5996ZM80.0806 20.2299L80.6618 21.0436L81.2457 20.6266L81.0376 19.9399L80.0806 20.2299ZM79.9064 9.82915L79.3895 8.97309L78.9064 9.26479V9.82915H79.9064ZM86.9099 9.11486L86.567 10.0542L86.5759 10.0575L86.5848 10.0605L86.9099 9.11486ZM88.6172 10.1427H89.6172V9.75305L89.3536 9.46612L88.6172 10.1427ZM89.8716 22.5993L90.8522 22.4032L90.7675 21.98L90.4016 21.7513L89.8716 22.5993ZM88.5475 27.0941L87.8497 26.3777L87.8404 26.387L88.5475 27.0941ZM82.7461 27.7038L82.2545 28.5747L82.2605 28.578L82.7461 27.7038ZM81.1259 25.9268L82.0335 25.5069L81.7651 24.9268H81.1259V25.9268ZM80.9343 27.3031L81.5649 28.0792L82.4254 27.3801L81.6414 26.596L80.9343 27.3031ZM74.314 27.6864L74.7119 26.769L74.7069 26.7668L74.314 27.6864ZM71.5614 25.3345L72.4173 24.8172L72.4111 24.8073L71.5614 25.3345ZM70.3941 16.1881H71.3941V15.9219L71.2618 15.6909L70.3941 16.1881ZM69.7495 10.7873L68.7765 10.5565L69.7495 10.7873ZM70.5335 8.95807V7.95807H70.0015L69.7042 8.39921L70.5335 8.95807ZM77.7461 9.98595L77.1016 10.7506L77.1075 10.7555L77.1134 10.7604L77.7461 9.98595ZM79.6276 21.4041C80.0482 21.4041 80.4004 21.2304 80.6618 21.0436L79.4994 19.4162C79.4714 19.4362 79.4672 19.4346 79.4864 19.4272C79.5074 19.4192 79.5566 19.4041 79.6276 19.4041V21.4041ZM81.0376 19.9399C80.9663 19.7045 80.9064 19.2296 80.9064 18.4355H78.9064C78.9064 19.2674 78.9626 19.9887 79.1236 20.5199L81.0376 19.9399ZM80.9064 18.4355V9.82915H78.9064V18.4355H80.9064ZM80.4232 10.6852C81.4694 10.0536 82.7633 9.71416 84.3489 9.71416V7.71416C82.4734 7.71416 80.8056 8.11806 79.3895 8.97309L80.4232 10.6852ZM84.3489 9.71416C85.2359 9.71416 85.9689 9.83589 86.567 10.0542L87.2528 8.1755C86.3875 7.85957 85.4132 7.71416 84.3489 7.71416V9.71416ZM86.5848 10.0605C87.2231 10.28 87.6309 10.5472 87.8809 10.8194L89.3536 9.46612C88.8138 8.87877 88.0834 8.4608 87.235 8.16917L86.5848 10.0605ZM87.6172 10.1427V19.2195L89.6172 19.2195V10.1427H87.6172ZM87.6172 19.2195C87.6172 21.0347 88.0453 22.6371 89.3416 23.4473L90.4016 21.7513C90.0254 21.5161 89.6172 20.8653 89.6172 19.2195L87.6172 19.2195ZM88.891 22.7954C88.8882 22.7812 88.8866 22.7706 88.8857 22.7649C88.8849 22.759 88.8845 22.7557 88.8845 22.7555C88.8845 22.7553 88.8847 22.757 88.885 22.7611C88.8853 22.7651 88.8857 22.7707 88.886 22.7781C88.8877 22.8098 88.889 22.8592 88.889 22.9303H90.889C90.889 22.778 90.886 22.5723 90.8522 22.4032L88.891 22.7954ZM88.889 22.9303V23.2439H90.889V22.9303H88.889ZM88.889 23.2439C88.889 24.7694 88.4896 25.7546 87.8498 26.3777L89.2453 27.8104C90.3941 26.6914 90.889 25.1098 90.889 23.2439H88.889ZM87.8404 26.387C87.2582 26.9692 86.4166 27.3136 85.1852 27.3136V29.3136C86.8109 29.3136 88.2109 28.8449 89.2547 27.8012L87.8404 26.387ZM85.1852 27.3136C84.4488 27.3136 83.8048 27.148 83.2318 26.8297L82.2605 28.578C83.1509 29.0727 84.1329 29.3136 85.1852 29.3136V27.3136ZM83.2377 26.833C82.7071 26.5335 82.309 26.1024 82.0335 25.5069L80.2183 26.3467C80.6629 27.3076 81.3449 28.0612 82.2545 28.5747L83.2377 26.833ZM81.1259 24.9268C80.7817 24.9268 80.3385 25.0101 79.9852 25.353C79.6263 25.7012 79.5336 26.1482 79.5336 26.5017H81.5336C81.5336 26.4719 81.5395 26.6315 81.3781 26.7881C81.2223 26.9394 81.0752 26.9268 81.1259 26.9268V24.9268ZM79.5336 26.5017C79.5336 27.1276 79.851 27.6341 80.2272 28.0102L81.6414 26.596C81.5646 26.5193 81.5361 26.4711 81.5282 26.4552C81.5225 26.4439 81.5336 26.4625 81.5336 26.5017H79.5336ZM80.3037 26.527C80.0331 26.7468 79.6898 26.939 79.2578 27.0926L79.9278 28.9771C80.541 28.759 81.0921 28.4634 81.5649 28.0792L80.3037 26.527ZM79.2578 27.0926C78.8981 27.2205 78.2629 27.3136 77.2757 27.3136V29.3136C78.3326 29.3136 79.2421 29.2208 79.9278 28.9771L79.2578 27.0926ZM77.2757 27.3136C76.4076 27.3136 75.5555 27.1349 74.7119 26.769L73.9161 28.6038C75.0006 29.0742 76.1229 29.3136 77.2757 29.3136V27.3136ZM74.7069 26.7668C73.6923 26.3334 72.9416 25.6849 72.4172 24.8172L70.7055 25.8517C71.4587 27.0979 72.5431 28.0173 73.9212 28.606L74.7069 26.7668ZM72.4111 24.8073C71.757 23.7528 71.3941 22.3585 71.3941 20.5609H69.3941C69.3941 22.6193 69.8094 24.4074 70.7116 25.8616L72.4111 24.8073ZM71.3941 20.5609V16.1881H69.3941V20.5609H71.3941ZM71.2618 15.6909C70.76 14.8152 70.5056 13.8496 70.5056 12.7734H68.5056C68.5056 14.1828 68.8436 15.4936 69.5265 16.6853L71.2618 15.6909ZM70.5056 12.7734C70.5056 12.2198 70.576 11.6355 70.7225 11.0182L68.7765 10.5565C68.5978 11.3097 68.5056 12.0494 68.5056 12.7734H70.5056ZM70.7225 11.0182C70.8599 10.4391 71.076 9.9425 71.3628 9.51692L69.7042 8.39921C69.2709 9.04217 68.9643 9.76505 68.7765 10.5565L70.7225 11.0182ZM70.5335 9.95807H74.3663V7.95807H70.5335V9.95807ZM74.3663 9.95807C75.6544 9.95807 76.5241 10.2638 77.1016 10.7506L78.3906 9.22132C77.3421 8.33761 75.9585 7.95807 74.3663 7.95807V9.95807ZM77.1134 10.7604C77.64 11.1905 77.983 11.8912 77.983 13.0696H79.983C79.983 11.4837 79.5015 10.1287 78.3787 9.2115L77.1134 10.7604ZM77.983 13.0696V18.7142H79.983V13.0696H77.983ZM77.983 18.7142C77.983 19.3124 78.0362 19.8827 78.2098 20.3381C78.2994 20.5729 78.4439 20.8386 78.6876 21.0515C78.9512 21.2819 79.2793 21.4041 79.6276 21.4041V19.4041C79.7611 19.4041 79.9012 19.456 80.0036 19.5455C80.0862 19.6176 80.0964 19.6721 80.0785 19.6253C80.062 19.5821 80.0359 19.4895 80.0153 19.3274C79.9952 19.1689 79.983 18.9663 79.983 18.7142H77.983ZM118.879 19.3763L117.879 19.3562L117.879 19.3662V19.3763H118.879ZM120.133 22.6864L121.114 22.4903L121.029 22.0671L120.663 21.8384L120.133 22.6864ZM111.614 27.1115L112.281 26.3667L112.274 26.3605L111.614 27.1115ZM108.792 16.31L108.167 15.5292L107.732 15.8771L107.799 16.43L108.792 16.31ZM109.105 18.9059H110.105V18.8457L110.098 18.7859L109.105 18.9059ZM109.889 26.432L110.617 27.1174L111.153 26.5485L110.73 25.8913L109.889 26.432ZM107.799 27.8258L108.165 28.7561L108.172 28.7534L107.799 27.8258ZM102.032 27.3031L102.692 26.552L102.69 26.5506L102.032 27.3031ZM99.4013 16.31L98.7766 15.5292L98.3417 15.8771L98.4085 16.43L99.4013 16.31ZM99.7149 18.9059H100.715V18.8457L100.708 18.7859L99.7149 18.9059ZM100.238 26.5366L100.955 27.2329L101.446 26.7274L101.135 26.0953L100.238 26.5366ZM92.3629 27.3728L92.9557 26.5675L92.9551 26.567L92.3629 27.3728ZM90.9169 16.1881H91.9169V15.8689L91.732 15.6087L90.9169 16.1881ZM90.9169 8.95807V7.95807H90.38L90.0834 8.40553L90.9169 8.95807ZM97.2236 9.88142L97.9053 10.613L98.6414 9.92709L97.951 9.1952L97.2236 9.88142ZM97.0668 11.6062V12.6062H97.6433L97.9322 12.1072L97.0668 11.6062ZM99.1748 9.49814L98.6817 8.62804L98.6702 8.63477L99.1748 9.49814ZM105.656 9.28908L105.164 10.1597L105.169 10.1626L105.656 9.28908ZM107.468 10.857L106.635 11.4117L107.428 12.6004L108.274 11.4489L107.468 10.857ZM109.593 9.18455L109.985 10.1043L109.991 10.1018L109.593 9.18455ZM117.241 10.5609L117.994 9.90233L117.987 9.89485L117.241 10.5609ZM118.948 15.9093L119.948 15.9294L119.948 15.9194V15.9093H118.948ZM117.879 19.3763C117.879 20.2858 117.977 21.0993 118.213 21.778L120.102 21.1209C119.966 20.731 119.879 20.1624 119.879 19.3763H117.879ZM118.213 21.778C118.471 22.52 118.938 23.119 119.603 23.5344L120.663 21.8384C120.399 21.673 120.216 21.4474 120.102 21.1209L118.213 21.778ZM119.153 22.8825C119.148 22.8611 119.147 22.8483 119.147 22.848C119.147 22.8467 119.147 22.8512 119.148 22.8627C119.149 22.8864 119.151 22.9252 119.151 22.9825H121.151C121.151 22.8416 121.147 22.6548 121.114 22.4903L119.153 22.8825ZM119.151 22.9825V23.2439H121.151V22.9825H119.151ZM119.151 23.2439C119.151 24.6311 118.753 25.5882 118.063 26.2516L119.45 27.6926C120.619 26.5674 121.151 25.0391 121.151 23.2439H119.151ZM118.063 26.2516C117.348 26.9406 116.407 27.3136 115.151 27.3136V29.3136C116.844 29.3136 118.308 28.7923 119.45 27.6926L118.063 26.2516ZM115.151 27.3136C113.877 27.3136 112.954 26.9697 112.281 26.3668L110.947 27.8562C112.062 28.8561 113.497 29.3136 115.151 29.3136V27.3136ZM112.274 26.3605C111.503 25.6828 111.029 24.5809 111.029 22.8432H109.029C109.029 24.9382 109.611 26.6818 110.954 27.8625L112.274 26.3605ZM111.029 22.8432V17.3379H109.029V22.8432H111.029ZM111.029 17.3379C111.029 16.8712 110.958 16.3474 110.673 15.9135C110.34 15.4063 109.815 15.1707 109.262 15.1707V17.1707C109.262 17.1707 109.213 17.1701 109.145 17.1353C109.072 17.0986 109.025 17.0474 109.001 17.0114C108.982 16.9821 108.991 16.9823 109.004 17.0411C109.016 17.0994 109.029 17.195 109.029 17.3379H111.029ZM109.262 15.1707C108.912 15.1707 108.511 15.2539 108.167 15.5292L109.416 17.0909C109.364 17.1329 109.314 17.1545 109.28 17.1643C109.25 17.1734 109.24 17.1707 109.262 17.1707V15.1707ZM107.799 16.43L108.112 19.0258L110.098 18.7859L109.784 16.1901L107.799 16.43ZM108.105 18.9059V22.8432H110.105V18.9059H108.105ZM108.105 22.8432C108.105 24.5047 108.375 25.9259 109.048 26.9728L110.73 25.8913C110.358 25.3121 110.105 24.3408 110.105 22.8432H108.105ZM109.161 25.7467C108.713 26.2226 108.141 26.6096 107.425 26.8982L108.172 28.7534C109.128 28.3683 109.95 27.8262 110.617 27.1174L109.161 25.7467ZM107.432 26.8955C106.72 27.1761 106.002 27.3136 105.272 27.3136V29.3136C106.261 29.3136 107.228 29.1259 108.165 28.7561L107.432 26.8955ZM105.272 27.3136C104.032 27.3136 103.219 27.0147 102.692 26.552L101.372 28.0543C102.378 28.9388 103.725 29.3136 105.272 29.3136V27.3136ZM102.69 26.5506C102.057 25.9966 101.638 25.0434 101.638 23.4529H99.6382C99.6382 25.37 100.148 26.9836 101.373 28.0557L102.69 26.5506ZM101.638 23.4529V17.3379H99.6382V23.4529H101.638ZM101.638 17.3379C101.638 16.8712 101.567 16.3474 101.282 15.9135C100.949 15.4063 100.425 15.1707 99.8717 15.1707V17.1707C99.8717 17.1707 99.823 17.1701 99.7544 17.1353C99.682 17.0986 99.6343 17.0474 99.6107 17.0114C99.5915 16.9821 99.6006 16.9823 99.6134 17.0411C99.6262 17.0994 99.6382 17.195 99.6382 17.3379H101.638ZM99.8717 15.1707C99.5217 15.1707 99.1206 15.2539 98.7766 15.5292L100.026 17.0909C99.9735 17.1329 99.9233 17.1545 99.8901 17.1643C99.8595 17.1734 99.8499 17.1707 99.8717 17.1707V15.1707ZM98.4085 16.43L98.7221 19.0258L100.708 18.7859L100.394 16.1901L98.4085 16.43ZM98.7149 18.9059V23.5226H100.715V18.9059H98.7149ZM98.7149 23.5226C98.7149 24.8892 98.8941 26.0708 99.3402 26.9779L101.135 26.0953C100.884 25.5853 100.715 24.7577 100.715 23.5226H98.7149ZM99.5198 25.8402C98.6158 26.7719 97.3057 27.2962 95.4465 27.2962V29.2962C97.6989 29.2962 99.5828 28.6474 100.955 27.2329L99.5198 25.8402ZM95.4465 27.2962C94.4019 27.2962 93.5916 27.0356 92.9557 26.5675L91.7701 28.1782C92.8067 28.9412 94.0522 29.2962 95.4465 29.2962V27.2962ZM92.9551 26.567C92.2475 26.047 91.9169 25.3938 91.9169 24.5157H89.9169C89.9169 26.0301 90.5503 27.2817 91.7707 28.1786L92.9551 26.567ZM91.9169 24.5157V16.1881H89.9169V24.5157H91.9169ZM91.732 15.6087C91.1883 14.8439 90.889 13.8718 90.889 12.634H88.889C88.889 14.207 89.275 15.6042 90.1018 16.7675L91.732 15.6087ZM90.889 12.634C90.889 11.3848 91.1886 10.358 91.7504 9.5106L90.0834 8.40553C89.2747 9.62552 88.889 11.0494 88.889 12.634H90.889ZM90.9169 9.95807H95.1155V7.95807H90.9169V9.95807ZM95.1155 9.95807C95.6568 9.95807 96.0988 10.1464 96.4962 10.5676L97.951 9.1952C97.1869 8.3853 96.2235 7.95807 95.1155 7.95807V9.95807ZM96.5418 9.14981C96.2522 9.41967 95.9974 9.7004 95.8091 9.99148C95.6256 10.2751 95.457 10.6428 95.457 11.0661L97.457 11.0661C97.457 11.1758 97.4162 11.1893 97.4882 11.078C97.5554 10.9742 97.6839 10.8194 97.9053 10.613L96.5418 9.14981ZM95.457 11.0661C95.457 11.4338 95.5664 11.8831 95.9464 12.2197C96.3033 12.5358 96.7372 12.6062 97.0668 12.6062V10.6062C96.9898 10.6062 97.1189 10.5865 97.2725 10.7226C97.4492 10.8791 97.457 11.0584 97.457 11.0661L95.457 11.0661ZM97.9322 12.1072C98.355 11.3769 98.9323 10.7981 99.6794 10.3615L98.6702 8.63477C97.6287 9.24345 96.8006 10.07 96.2013 11.1051L97.9322 12.1072ZM99.6678 10.3682C100.539 9.87449 101.589 9.60963 102.851 9.60963V7.60963C101.302 7.60963 99.9012 7.93712 98.6818 8.62812L99.6678 10.3682ZM102.851 9.60963C103.775 9.60963 104.535 9.8043 105.164 10.1596L106.148 8.41852C105.174 7.86792 104.064 7.60963 102.851 7.60963V9.60963ZM105.169 10.1626C105.884 10.5612 106.352 10.9859 106.635 11.4117L108.3 10.3023C107.794 9.54348 107.053 8.92289 106.142 8.41551L105.169 10.1626ZM108.274 11.4489C108.71 10.854 109.274 10.4077 109.985 10.1043L109.201 8.26477C108.169 8.70473 107.316 9.37342 106.662 10.2651L108.274 11.4489ZM109.991 10.1018C110.75 9.77252 111.532 9.60963 112.346 9.60963V7.60963C111.255 7.60963 110.202 7.83002 109.195 8.26729L109.991 10.1018ZM112.346 9.60963C114.227 9.60963 115.562 10.1819 116.495 11.2269L117.987 9.89485C116.597 8.33823 114.669 7.60963 112.346 7.60963V9.60963ZM116.489 11.2194C117.423 12.2875 117.948 13.8101 117.948 15.9093H119.948C119.948 13.4789 119.336 11.4359 117.994 9.90236L116.489 11.2194ZM117.949 15.8892L117.879 19.3562L119.879 19.3963L119.948 15.9294L117.949 15.8892ZM149.053 19.3763L148.053 19.3562L148.053 19.3662V19.3763H149.053ZM150.308 22.6864L151.288 22.4903L151.203 22.0671L150.838 21.8384L150.308 22.6864ZM141.788 27.1115L142.456 26.3667L142.449 26.3605L141.788 27.1115ZM138.966 16.31L138.341 15.5292L137.906 15.8771L137.973 16.43L138.966 16.31ZM139.28 18.9059H140.28V18.8457L140.272 18.7859L139.28 18.9059ZM140.064 26.432L140.792 27.1174L141.327 26.5485L140.905 25.8913L140.064 26.432ZM137.973 27.8258L138.34 28.7561L138.347 28.7534L137.973 27.8258ZM132.206 27.3031L132.866 26.552L132.865 26.5506L132.206 27.3031ZM129.576 16.31L128.951 15.5292L128.516 15.8771L128.583 16.43L129.576 16.31ZM129.889 18.9059H130.889V18.8457L130.882 18.7859L129.889 18.9059ZM130.412 26.5366L131.13 27.2329L131.62 26.7274L131.309 26.0953L130.412 26.5366ZM122.537 27.3728L123.13 26.5675L123.13 26.567L122.537 27.3728ZM121.091 16.1881H122.091V15.8689L121.906 15.6087L121.091 16.1881ZM121.091 8.95807V7.95807L120.554 7.95807L120.258 8.40553L121.091 8.95807ZM127.398 9.88142L128.08 10.613L128.816 9.92709L128.125 9.1952L127.398 9.88142ZM127.241 11.6062V12.6062H127.818L128.107 12.1072L127.241 11.6062ZM129.349 9.49814L128.856 8.62804L128.845 8.63477L129.349 9.49814ZM135.83 9.28908L135.338 10.1597L135.343 10.1626L135.83 9.28908ZM137.642 10.857L136.81 11.4117L137.602 12.6004L138.448 11.4489L137.642 10.857ZM139.767 9.18455L140.16 10.1043L140.166 10.1018L139.767 9.18455ZM147.416 10.5609L148.168 9.90233L148.161 9.89485L147.416 10.5609ZM149.123 15.9093L150.123 15.9294L150.123 15.9194V15.9093H149.123ZM148.053 19.3763C148.053 20.2858 148.151 21.0993 148.387 21.778L150.276 21.1209C150.141 20.731 150.053 20.1624 150.053 19.3763H148.053ZM148.387 21.778C148.646 22.52 149.113 23.119 149.778 23.5344L150.838 21.8384C150.573 21.673 150.39 21.4474 150.276 21.1209L148.387 21.778ZM149.327 22.8825C149.323 22.8611 149.321 22.8483 149.321 22.848C149.321 22.8467 149.322 22.8512 149.322 22.8627C149.324 22.8864 149.325 22.9252 149.325 22.9825H151.325C151.325 22.8416 151.321 22.6548 151.288 22.4903L149.327 22.8825ZM149.325 22.9825V23.2439H151.325V22.9825H149.325ZM149.325 23.2439C149.325 24.6311 148.927 25.5882 148.238 26.2516L149.625 27.6926C150.794 26.5674 151.325 25.0391 151.325 23.2439H149.325ZM148.238 26.2516C147.522 26.9406 146.582 27.3136 145.325 27.3136V29.3136C147.018 29.3136 148.482 28.7923 149.625 27.6926L148.238 26.2516ZM145.325 27.3136C144.051 27.3136 143.128 26.9697 142.456 26.3668L141.121 27.8562C142.237 28.8561 143.672 29.3136 145.325 29.3136V27.3136ZM142.449 26.3605C141.678 25.6828 141.203 24.5809 141.203 22.8432H139.203C139.203 24.9382 139.785 26.6818 141.128 27.8625L142.449 26.3605ZM141.203 22.8432V17.3379H139.203V22.8432H141.203ZM141.203 17.3379C141.203 16.8712 141.132 16.3474 140.847 15.9135C140.514 15.4063 139.99 15.1707 139.436 15.1707V17.1707C139.436 17.1707 139.388 17.1701 139.319 17.1353C139.247 17.0986 139.199 17.0474 139.175 17.0114C139.156 16.9821 139.165 16.9823 139.178 17.0411C139.191 17.0994 139.203 17.195 139.203 17.3379H141.203ZM139.436 15.1707C139.086 15.1707 138.685 15.2539 138.341 15.5292L139.591 17.0909C139.538 17.1329 139.488 17.1545 139.455 17.1643C139.424 17.1734 139.415 17.1707 139.436 17.1707V15.1707ZM137.973 16.43L138.287 19.0258L140.272 18.7859L139.959 16.1901L137.973 16.43ZM138.28 18.9059V22.8432H140.28V18.9059H138.28ZM138.28 22.8432C138.28 24.5047 138.549 25.9259 139.222 26.9728L140.905 25.8913C140.532 25.3121 140.28 24.3408 140.28 22.8432H138.28ZM139.335 25.7467C138.887 26.2226 138.316 26.6096 137.599 26.8982L138.347 28.7534C139.302 28.3683 140.125 27.8262 140.792 27.1174L139.335 25.7467ZM137.606 26.8955C136.895 27.1761 136.177 27.3136 135.447 27.3136V29.3136C136.436 29.3136 137.402 29.1259 138.34 28.7561L137.606 26.8955ZM135.447 27.3136C134.207 27.3136 133.393 27.0147 132.866 26.552L131.546 28.0543C132.553 28.9388 133.899 29.3136 135.447 29.3136V27.3136ZM132.865 26.5506C132.232 25.9966 131.813 25.0434 131.813 23.4529H129.813C129.813 25.37 130.323 26.9836 131.548 28.0557L132.865 26.5506ZM131.813 23.4529V17.3379H129.813V23.4529H131.813ZM131.813 17.3379C131.813 16.8712 131.742 16.3474 131.457 15.9135C131.124 15.4063 130.599 15.1707 130.046 15.1707V17.1707C130.046 17.1707 129.997 17.1701 129.929 17.1353C129.856 17.0986 129.809 17.0474 129.785 17.0114C129.766 16.9821 129.775 16.9823 129.788 17.0411C129.801 17.0994 129.813 17.195 129.813 17.3379H131.813ZM130.046 15.1707C129.696 15.1707 129.295 15.2539 128.951 15.5292L130.2 17.0909C130.148 17.1329 130.098 17.1545 130.064 17.1643C130.034 17.1734 130.024 17.1707 130.046 17.1707V15.1707ZM128.583 16.43L128.896 19.0258L130.882 18.7859L130.568 16.1901L128.583 16.43ZM128.889 18.9059V23.5226H130.889V18.9059H128.889ZM128.889 23.5226C128.889 24.8892 129.068 26.0708 129.515 26.9779L131.309 26.0953C131.059 25.5853 130.889 24.7577 130.889 23.5226H128.889ZM129.694 25.8402C128.79 26.7719 127.48 27.2962 125.621 27.2962V29.2962C127.873 29.2962 129.757 28.6474 131.13 27.2329L129.694 25.8402ZM125.621 27.2962C124.576 27.2962 123.766 27.0356 123.13 26.5675L121.945 28.1782C122.981 28.9412 124.227 29.2962 125.621 29.2962V27.2962ZM123.13 26.567C122.422 26.047 122.091 25.3938 122.091 24.5157H120.091C120.091 26.0301 120.725 27.2817 121.945 28.1786L123.13 26.567ZM122.091 24.5157V16.1881H120.091V24.5157H122.091ZM121.906 15.6087C121.363 14.8439 121.063 13.8718 121.063 12.634H119.063C119.063 14.207 119.449 15.6042 120.276 16.7675L121.906 15.6087ZM121.063 12.634C121.063 11.3848 121.363 10.358 121.925 9.5106L120.258 8.40553C119.449 9.62552 119.063 11.0494 119.063 12.634H121.063ZM121.091 9.95807H125.29V7.95807H121.091V9.95807ZM125.29 9.95807C125.831 9.95807 126.273 10.1464 126.671 10.5676L128.125 9.1952C127.361 8.3853 126.398 7.95807 125.29 7.95807V9.95807ZM126.716 9.14981C126.427 9.41967 126.172 9.7004 125.983 9.99148C125.8 10.2751 125.631 10.6428 125.631 11.0661H127.631C127.631 11.1758 127.591 11.1893 127.663 11.078C127.73 10.9742 127.858 10.8194 128.08 10.613L126.716 9.14981ZM125.631 11.0661C125.631 11.4338 125.741 11.8831 126.121 12.2197C126.478 12.5358 126.912 12.6062 127.241 12.6062V10.6062C127.164 10.6062 127.293 10.5865 127.447 10.7226C127.624 10.8791 127.631 11.0584 127.631 11.0661H125.631ZM128.107 12.1072C128.529 11.3769 129.107 10.7981 129.854 10.3615L128.845 8.63477C127.803 9.24345 126.975 10.07 126.376 11.1051L128.107 12.1072ZM129.842 10.3682C130.713 9.87449 131.763 9.60963 133.025 9.60963V7.60963C131.477 7.60963 130.076 7.93712 128.856 8.62812L129.842 10.3682ZM133.025 9.60963C133.949 9.60963 134.709 9.8043 135.338 10.1596L136.322 8.41852C135.348 7.86792 134.238 7.60963 133.025 7.60963V9.60963ZM135.343 10.1626C136.059 10.5612 136.526 10.9859 136.81 11.4117L138.474 10.3023C137.968 9.54348 137.227 8.92289 136.317 8.41551L135.343 10.1626ZM138.448 11.4489C138.885 10.854 139.449 10.4077 140.16 10.1043L139.375 8.26477C138.344 8.70473 137.491 9.37342 136.836 10.2651L138.448 11.4489ZM140.166 10.1018C140.924 9.77252 141.706 9.60963 142.52 9.60963V7.60963C141.429 7.60963 140.376 7.83002 139.369 8.26729L140.166 10.1018ZM142.52 9.60963C144.401 9.60963 145.737 10.1819 146.67 11.2269L148.161 9.89485C146.772 8.33823 144.843 7.60963 142.52 7.60963V9.60963ZM146.663 11.2194C147.598 12.2875 148.123 13.8101 148.123 15.9093H150.123C150.123 13.4789 149.51 11.4359 148.168 9.90236L146.663 11.2194ZM148.123 15.8892L148.053 19.3562L150.053 19.3963L150.123 15.9294L148.123 15.8892ZM159.262 20.0034L158.272 20.1449L158.346 20.6635L158.815 20.8979L159.262 20.0034ZM160.43 14.0104L159.435 13.904L159.435 13.9096L160.43 14.0104ZM161.057 9.74204L160.468 8.93374L160.162 9.15664L160.08 9.52631L161.057 9.74204ZM168.444 9.63751L167.856 10.4467L167.862 10.4513L167.869 10.4557L168.444 9.63751ZM169.088 16.2926L170.072 16.4688L170.074 16.4619L170.075 16.4549L169.088 16.2926ZM167.259 24.6899L168.228 24.9369L168.228 24.9351L167.259 24.6899ZM166.44 27.1812L165.502 26.8345L165.499 26.8435L166.44 27.1812ZM165.203 29.8467L166.049 30.3795L166.052 30.3754L165.203 29.8467ZM160.081 33.9234L160.329 34.8921L160.33 34.8919L160.081 33.9234ZM152.869 32.8955L153.541 32.1555L153.533 32.1481L152.869 32.8955ZM152.555 26.2927L152.297 25.3264L151.934 25.4234L151.724 25.7359L152.555 26.2927ZM155.255 26.3972L155.439 25.4142L155.429 25.4124L155.42 25.4108L155.255 26.3972ZM158.2 26.9373L158.341 25.9473L158.271 25.9373H158.2V26.9373ZM158.461 26.9895L158.218 27.9597L158.284 27.976L158.35 27.9834L158.461 26.9895ZM159.28 26.8676L158.655 26.0867L159.28 26.8676ZM159.454 26.3101H160.454V25.4828L159.641 25.3278L159.454 26.3101ZM155.342 25.5261L154.96 26.4501L155.055 26.4893L155.155 26.5084L155.342 25.5261ZM152.712 22.8954L151.838 23.3816L151.838 23.3817L152.712 22.8954ZM150.848 16.1881L151.841 16.0736L151.809 15.7987L151.641 15.5793L150.848 16.1881ZM150.743 8.95807V7.95807H150.211L149.914 8.39907L150.743 8.95807ZM158.583 10.2473L159.343 9.59761L159.339 9.59312L158.583 10.2473ZM159.628 13.0522L160.62 13.1776L160.636 13.0541L160.621 12.9304L159.628 13.0522ZM158.245 19.202V19.6027H160.245V19.202H158.245ZM158.245 19.6027C158.245 19.792 158.25 19.9874 158.272 20.1449L160.252 19.862C160.253 19.8675 160.251 19.8504 160.248 19.7988C160.246 19.7509 160.245 19.6863 160.245 19.6027H158.245ZM158.815 20.8979C159.08 21.0304 159.363 21.0905 159.646 21.0905V19.0905C159.645 19.0905 159.647 19.0905 159.651 19.091C159.655 19.0914 159.66 19.0922 159.667 19.0936C159.68 19.0967 159.695 19.1019 159.71 19.109L158.815 20.8979ZM159.646 21.0905C160.11 21.0905 160.569 20.8895 160.859 20.4492C161.102 20.0818 161.151 19.6576 161.151 19.324H159.151C159.151 19.4 159.144 19.4369 159.143 19.4448C159.141 19.4532 159.148 19.4113 159.19 19.3486C159.235 19.2791 159.31 19.2033 159.415 19.1503C159.516 19.0992 159.603 19.0905 159.646 19.0905V21.0905ZM161.151 19.324C161.151 17.6529 161.242 15.9154 161.424 14.1111L159.435 13.9096C159.246 15.7755 159.151 17.5805 159.151 19.324H161.151ZM161.424 14.1167C161.62 12.2823 161.824 10.9026 162.033 9.95777L160.08 9.52631C159.848 10.5792 159.634 12.045 159.435 13.9041L161.424 14.1167ZM161.645 10.5503C162.365 10.0264 163.391 9.71416 164.82 9.71416V7.71416C163.113 7.71416 161.63 8.08713 160.468 8.93374L161.645 10.5503ZM164.82 9.71416C166.276 9.71416 167.245 10.003 167.856 10.4467L169.031 8.8283C167.947 8.04092 166.5 7.71416 164.82 7.71416V9.71416ZM167.869 10.4557C168.529 10.9195 168.733 11.3729 168.733 11.8326H170.733C170.733 10.5735 170.077 9.56346 169.018 8.81932L167.869 10.4557ZM168.733 11.8326C168.733 11.8319 168.733 11.84 168.732 11.8598C168.731 11.8788 168.729 11.9043 168.726 11.9371C168.721 12.003 168.712 12.0894 168.699 12.1984C168.674 12.4162 168.635 12.7073 168.582 13.0746C168.476 13.8085 168.316 14.8261 168.101 16.1303L170.075 16.4549C170.29 15.1459 170.453 14.1135 170.561 13.3607C170.665 12.6462 170.733 12.1014 170.733 11.8326H168.733ZM168.104 16.1164C167.632 18.7503 167.028 21.5263 166.289 24.4446L168.228 24.9351C168.977 21.9765 169.592 19.1543 170.072 16.4688L168.104 16.1164ZM166.29 24.4429C166.152 24.9842 165.893 25.7759 165.502 26.8345L167.378 27.5278C167.777 26.4494 168.064 25.5803 168.228 24.9369L166.29 24.4429ZM165.499 26.8435C165.132 27.8674 164.747 28.6868 164.354 29.318L166.052 30.3754C166.541 29.5896 166.982 28.632 167.381 27.5188L165.499 26.8435ZM164.357 29.3139C163.077 31.3465 161.562 32.5101 159.832 32.9549L160.33 34.8919C162.665 34.2914 164.565 32.7372 166.049 30.3795L164.357 29.3139ZM159.833 32.9546C158.96 33.1782 158.085 33.2892 157.207 33.2892V35.2892C158.256 35.2892 159.297 35.1564 160.329 34.8921L159.833 32.9546ZM157.207 33.2892C155.496 33.2892 154.322 32.8658 153.541 32.1556L152.196 33.6354C153.459 34.7835 155.177 35.2892 157.207 35.2892V33.2892ZM153.533 32.1481C152.802 31.4988 152.457 30.73 152.457 29.777H150.457C150.457 31.3096 151.053 32.6197 152.204 33.6429L153.533 32.1481ZM152.457 29.777C152.457 28.7578 152.756 27.7882 153.386 26.8494L151.724 25.7359C150.89 26.9807 150.457 28.334 150.457 29.777H152.457ZM152.813 27.2589C152.81 27.2597 152.86 27.2478 152.998 27.2378C153.125 27.2285 153.295 27.223 153.513 27.223V25.223C153.056 25.223 152.614 25.242 152.297 25.3264L152.813 27.2589ZM153.513 27.223C153.902 27.223 154.423 27.2724 155.091 27.3836L155.42 25.4108C154.693 25.2898 154.053 25.223 153.513 25.223V27.223ZM155.072 27.3802C156.036 27.5603 156.765 27.6955 157.257 27.7858C157.503 27.8309 157.691 27.8651 157.822 27.8882C157.886 27.8996 157.939 27.9088 157.979 27.9154C157.998 27.9185 158.018 27.9218 158.037 27.9245C158.045 27.9258 158.059 27.9278 158.075 27.9297C158.082 27.9306 158.095 27.932 158.11 27.9334C158.12 27.9342 158.155 27.9373 158.2 27.9373V25.9373C158.243 25.9373 158.276 25.9402 158.284 25.9409C158.297 25.9421 158.308 25.9433 158.312 25.9438C158.318 25.9445 158.322 25.945 158.324 25.9453C158.326 25.9456 158.327 25.9458 158.327 25.9458C158.328 25.9458 158.326 25.9456 158.322 25.9449C158.318 25.9443 158.313 25.9434 158.306 25.9423C158.277 25.9376 158.233 25.9299 158.17 25.9189C158.046 25.8969 157.863 25.8636 157.618 25.8187C157.129 25.729 156.403 25.5942 155.439 25.4142L155.072 27.3802ZM158.058 27.9272C158.1 27.9333 158.153 27.9435 158.218 27.9597L158.703 26.0194C158.582 25.9892 158.461 25.9645 158.341 25.9473L158.058 27.9272ZM158.35 27.9834C158.506 28.0007 158.68 28.007 158.862 28.007V26.007C158.718 26.007 158.625 26.0016 158.571 25.9957L158.35 27.9834ZM158.862 28.007C159.229 28.007 159.594 27.8967 159.904 27.6485L158.655 26.0867C158.688 26.0604 158.728 26.038 158.772 26.0234C158.814 26.0093 158.847 26.007 158.862 26.007V28.007ZM159.904 27.6485C160.4 27.2523 160.454 26.6463 160.454 26.3101H158.454C158.454 26.3881 158.445 26.3957 158.456 26.3603C158.468 26.3211 158.516 26.1979 158.655 26.0867L159.904 27.6485ZM159.641 25.3278L155.53 24.5438L155.155 26.5084L159.267 27.2924L159.641 25.3278ZM155.725 24.6021C154.992 24.2988 154.262 23.6247 153.586 22.4091L151.838 23.3817C152.648 24.8375 153.672 25.9172 154.96 26.4501L155.725 24.6021ZM153.586 22.4093C152.756 20.9177 152.158 18.825 151.841 16.0736L149.854 16.3025C150.188 19.1958 150.833 21.5747 151.838 23.3816L153.586 22.4093ZM151.641 15.5793C151.023 14.7738 150.698 13.7977 150.698 12.5992H148.698C148.698 14.1882 149.139 15.6046 150.054 16.7969L151.641 15.5793ZM150.698 12.5992C150.698 11.3803 151 10.3665 151.572 9.51706L149.914 8.39907C149.093 9.61705 148.698 11.0307 148.698 12.5992H150.698ZM150.743 9.95807H155.22V7.95807L150.743 7.95807V9.95807ZM155.22 9.95807C156.527 9.95807 157.329 10.3263 157.826 10.9014L159.339 9.59312C158.35 8.44927 156.911 7.95807 155.22 7.95807V9.95807ZM157.823 10.8969C158.194 11.3311 158.498 12.0501 158.636 13.1739L160.621 12.9304C160.457 11.5919 160.064 10.4411 159.343 9.59762L157.823 10.8969ZM158.636 12.9267C158.375 14.9901 158.245 17.082 158.245 19.202H160.245C160.245 17.1641 160.37 15.1561 160.62 13.1776L158.636 12.9267ZM179.89 20.0034L178.9 20.1449L178.974 20.6635L179.442 20.8979L179.89 20.0034ZM181.057 14.0104L180.063 13.904L180.062 13.9096L181.057 14.0104ZM181.684 9.74204L181.095 8.93374L180.789 9.15664L180.708 9.52631L181.684 9.74204ZM189.071 9.63751L188.483 10.4467L188.49 10.4513L188.496 10.4557L189.071 9.63751ZM189.715 16.2926L190.7 16.4688L190.701 16.4619L190.702 16.4549L189.715 16.2926ZM187.886 24.6899L188.855 24.9369L188.856 24.9351L187.886 24.6899ZM187.067 27.1812L186.129 26.8345L186.126 26.8435L187.067 27.1812ZM185.83 29.8467L186.677 30.3795L186.679 30.3754L185.83 29.8467ZM180.708 33.9234L180.957 34.8921L180.957 34.8919L180.708 33.9234ZM173.496 32.8955L174.169 32.1555L174.16 32.1481L173.496 32.8955ZM173.182 26.2927L172.925 25.3264L172.561 25.4234L172.352 25.7359L173.182 26.2927ZM175.883 26.3972L176.066 25.4142L176.057 25.4124L176.047 25.4108L175.883 26.3972ZM178.827 26.9373L178.968 25.9473L178.898 25.9373H178.827V26.9373ZM179.088 26.9895L178.846 27.9597L178.911 27.976L178.978 27.9834L179.088 26.9895ZM179.907 26.8676L179.282 26.0867L179.907 26.8676ZM180.081 26.3101H181.081V25.4828L180.269 25.3278L180.081 26.3101ZM175.97 25.5261L175.587 26.4501L175.682 26.4893L175.782 26.5084L175.97 25.5261ZM173.339 22.8954L172.465 23.3816L172.465 23.3817L173.339 22.8954ZM171.475 16.1881L172.468 16.0736L172.437 15.7987L172.268 15.5793L171.475 16.1881ZM171.37 8.95807V7.95807H170.839L170.541 8.39907L171.37 8.95807ZM179.21 10.2473L179.97 9.59761L179.967 9.59312L179.21 10.2473ZM180.255 13.0522L181.248 13.1776L181.263 13.0541L181.248 12.9304L180.255 13.0522ZM178.872 19.202V19.6027H180.872V19.202H178.872ZM178.872 19.6027C178.872 19.792 178.877 19.9874 178.9 20.1449L180.88 19.862C180.88 19.8675 180.878 19.8504 180.876 19.7988C180.873 19.7509 180.872 19.6863 180.872 19.6027H178.872ZM179.442 20.8979C179.707 21.0304 179.99 21.0905 180.273 21.0905V19.0905C180.273 19.0905 180.275 19.0905 180.279 19.091C180.282 19.0914 180.288 19.0922 180.294 19.0936C180.308 19.0967 180.323 19.1019 180.337 19.109L179.442 20.8979ZM180.273 21.0905C180.738 21.0905 181.197 20.8895 181.487 20.4492C181.729 20.0818 181.778 19.6576 181.778 19.324H179.778C179.778 19.4 179.772 19.4369 179.77 19.4448C179.768 19.4532 179.775 19.4113 179.817 19.3486C179.863 19.2791 179.938 19.2033 180.043 19.1503C180.144 19.0992 180.23 19.0905 180.273 19.0905V21.0905ZM181.778 19.324C181.778 17.6529 181.869 15.9154 182.052 14.1111L180.062 13.9096C179.873 15.7755 179.778 17.5805 179.778 19.324H181.778ZM182.051 14.1167C182.247 12.2823 182.452 10.9026 182.66 9.95777L180.708 9.52631C180.475 10.5792 180.261 12.045 180.063 13.9041L182.051 14.1167ZM182.273 10.5503C182.992 10.0264 184.018 9.71416 185.447 9.71416V7.71416C183.74 7.71416 182.258 8.08713 181.095 8.93374L182.273 10.5503ZM185.447 9.71416C186.903 9.71416 187.872 10.003 188.483 10.4467L189.658 8.8283C188.574 8.04092 187.127 7.71416 185.447 7.71416V9.71416ZM188.496 10.4557C189.156 10.9195 189.36 11.3729 189.36 11.8326H191.36C191.36 10.5735 190.705 9.56346 189.646 8.81932L188.496 10.4557ZM189.36 11.8326C189.36 11.8319 189.36 11.84 189.359 11.8598C189.358 11.8788 189.356 11.9043 189.353 11.9371C189.348 12.003 189.339 12.0894 189.326 12.1984C189.301 12.4162 189.262 12.7073 189.209 13.0746C189.103 13.8085 188.943 14.8261 188.729 16.1303L190.702 16.4549C190.917 15.1459 191.08 14.1135 191.189 13.3607C191.292 12.6462 191.36 12.1014 191.36 11.8326H189.36ZM188.731 16.1164C188.26 18.7503 187.655 21.5263 186.917 24.4446L188.856 24.9351C189.604 21.9765 190.219 19.1543 190.7 16.4688L188.731 16.1164ZM186.917 24.4429C186.779 24.9842 186.521 25.7759 186.129 26.8345L188.005 27.5278C188.404 26.4494 188.691 25.5803 188.855 24.9369L186.917 24.4429ZM186.126 26.8435C185.759 27.8674 185.375 28.6868 184.982 29.318L186.679 30.3754C187.169 29.5896 187.609 28.632 188.009 27.5188L186.126 26.8435ZM184.984 29.3139C183.704 31.3465 182.189 32.5101 180.459 32.9549L180.957 34.8919C183.293 34.2914 185.192 32.7372 186.677 30.3795L184.984 29.3139ZM180.46 32.9546C179.587 33.1782 178.712 33.2892 177.834 33.2892V35.2892C178.883 35.2892 179.925 35.1564 180.957 34.8921L180.46 32.9546ZM177.834 33.2892C176.124 33.2892 174.95 32.8658 174.168 32.1556L172.823 33.6354C174.086 34.7835 175.804 35.2892 177.834 35.2892V33.2892ZM174.16 32.1481C173.43 31.4988 173.085 30.73 173.085 29.777H171.085C171.085 31.3096 171.68 32.6197 172.831 33.6429L174.16 32.1481ZM173.085 29.777C173.085 28.7578 173.384 27.7882 174.013 26.8494L172.352 25.7359C171.517 26.9807 171.085 28.334 171.085 29.777H173.085ZM173.44 27.2589C173.437 27.2597 173.488 27.2478 173.625 27.2378C173.752 27.2285 173.923 27.223 174.14 27.223V25.223C173.683 25.223 173.241 25.242 172.925 25.3264L173.44 27.2589ZM174.14 27.223C174.529 27.223 175.051 27.2724 175.718 27.3836L176.047 25.4108C175.321 25.2898 174.681 25.223 174.14 25.223V27.223ZM175.699 27.3802C176.663 27.5603 177.392 27.6955 177.884 27.7858C178.13 27.8309 178.319 27.8651 178.449 27.8882C178.513 27.8996 178.566 27.9088 178.606 27.9154C178.625 27.9185 178.645 27.9218 178.664 27.9245C178.673 27.9258 178.686 27.9278 178.702 27.9297C178.71 27.9306 178.722 27.932 178.738 27.9334C178.748 27.9342 178.782 27.9373 178.827 27.9373V25.9373C178.87 25.9373 178.904 25.9402 178.912 25.9409C178.925 25.9421 178.935 25.9433 178.94 25.9438C178.945 25.9445 178.949 25.945 178.951 25.9453C178.953 25.9456 178.954 25.9458 178.955 25.9458C178.955 25.9458 178.953 25.9456 178.949 25.9449C178.945 25.9443 178.94 25.9434 178.933 25.9423C178.905 25.9376 178.86 25.9299 178.798 25.9189C178.674 25.8969 178.49 25.8636 178.245 25.8187C177.756 25.729 177.03 25.5942 176.066 25.4142L175.699 27.3802ZM178.685 27.9272C178.728 27.9333 178.781 27.9435 178.846 27.9597L179.331 26.0194C179.21 25.9892 179.089 25.9645 178.968 25.9473L178.685 27.9272ZM178.978 27.9834C179.133 28.0007 179.307 28.007 179.489 28.007V26.007C179.346 26.007 179.252 26.0016 179.199 25.9957L178.978 27.9834ZM179.489 28.007C179.856 28.007 180.221 27.8967 180.532 27.6485L179.282 26.0867C179.315 26.0604 179.356 26.038 179.399 26.0234C179.442 26.0093 179.474 26.007 179.489 26.007V28.007ZM180.532 27.6485C181.027 27.2523 181.081 26.6463 181.081 26.3101H179.081C179.081 26.3881 179.072 26.3957 179.083 26.3603C179.095 26.3211 179.143 26.1979 179.282 26.0867L180.532 27.6485ZM180.269 25.3278L176.157 24.5438L175.782 26.5084L179.894 27.2924L180.269 25.3278ZM176.352 24.6021C175.619 24.2988 174.889 23.6247 174.213 22.4091L172.465 23.3817C173.275 24.8375 174.299 25.9172 175.587 26.4501L176.352 24.6021ZM174.213 22.4093C173.383 20.9177 172.785 18.825 172.468 16.0736L170.481 16.3025C170.815 19.1958 171.46 21.5747 172.465 23.3816L174.213 22.4093ZM172.268 15.5793C171.65 14.7738 171.325 13.7977 171.325 12.5992H169.325C169.325 14.1882 169.767 15.6046 170.682 16.7969L172.268 15.5793ZM171.325 12.5992C171.325 11.3803 171.627 10.3665 172.2 9.51706L170.541 8.39907C169.72 9.61705 169.325 11.0307 169.325 12.5992H171.325ZM171.37 9.95807H175.848V7.95807H171.37V9.95807ZM175.848 9.95807C177.154 9.95807 177.956 10.3263 178.454 10.9014L179.967 9.59312C178.977 8.44927 177.538 7.95807 175.848 7.95807V9.95807ZM178.45 10.8969C178.821 11.3311 179.125 12.0501 179.263 13.1739L181.248 12.9304C181.084 11.5919 180.691 10.4411 179.97 9.59762L178.45 10.8969ZM179.263 12.9267C179.002 14.9901 178.872 17.082 178.872 19.202H180.872C180.872 17.1641 180.997 15.1561 181.248 13.1776L179.263 12.9267Z" fill="white" mask="url(#path-1-outside-1_25_602)"/>
</svg>
